<svg xmlns="http://www.w3.org/2000/svg" xml:space="preserve" width="513.2" height="232.1" viewBox="0 0 135.8 61.4"><defs><clipPath id="a" clipPathUnits="userSpaceOnUse"><circle cx="108.7" cy="130.8" r="9.2" style="display:inline;opacity:1;fill:#f5c172;fill-opacity:1;stroke:none;stroke-width:2.45307;stroke-dasharray:none;stroke-opacity:1"/></clipPath><clipPath id="i" clipPathUnits="userSpaceOnUse"><circle cx="108.8" cy="130.8" r="9.2" style="display:inline;fill:#f5c172;fill-opacity:1;stroke:none;stroke-width:2.45307;stroke-dasharray:none;stroke-opacity:1"/></clipPath><clipPath id="h" clipPathUnits="userSpaceOnUse"><circle cx="108.8" cy="130.8" r="9.2" style="display:inline;fill:#f5c172;fill-opacity:1;stroke:none;stroke-width:2.45307;stroke-dasharray:none;stroke-opacity:1"/></clipPath><clipPath id="g" clipPathUnits="userSpaceOnUse"><circle cx="108.8" cy="130.8" r="9.2" style="display:inline;fill:#f5c172;fill-opacity:1;stroke:none;stroke-width:2.45307;stroke-dasharray:none;stroke-opacity:1"/></clipPath><clipPath id="f" clipPathUnits="userSpaceOnUse"><circle cx="108.8" cy="130.8" r="9.2" style="display:inline;fill:#f5c172;fill-opacity:1;stroke:none;stroke-width:2.45307;stroke-dasharray:none;stroke-opacity:1"/></clipPath><clipPath id="e" clipPathUnits="userSpaceOnUse"><circle cx="108.8" cy="130.8" r="9.2" style="display:inline;fill:#f5c172;fill-opacity:1;stroke:none;stroke-width:2.45307;stroke-dasharray:none;stroke-opacity:1"/></clipPath><clipPath id="d" clipPathUnits="userSpaceOnUse"><circle cx="108.8" cy="130.8" r="9.2" style="display:inline;fill:#f5c172;fill-opacity:1;stroke:none;stroke-width:2.45307;stroke-dasharray:none;stroke-opacity:1"/></clipPath><clipPath id="c" clipPathUnits="userSpaceOnUse"><circle cx="108.8" cy="130.8" r="9.2" style="display:inline;fill:#f5c172;fill-opacity:1;stroke:none;stroke-width:2.45307;stroke-dasharray:none;stroke-opacity:1"/></clipPath><clipPath id="b" clipPathUnits="userSpaceOnUse"><circle cx="108.8" cy="130.8" r="9.2" style="display:inline;fill:#f5c172;fill-opacity:1;stroke:none;stroke-width:2.45307;stroke-dasharray:none;stroke-opacity:1"/></clipPath><mask id="j" maskUnits="userSpaceOnUse"><circle cx="109.1" cy="151.8" r="40.2" style="display:inline;opacity:1;fill:#ede5f9;fill-opacity:1;stroke:#3e1d77;stroke-width:2.64583;stroke-dasharray:none;stroke-opacity:1"/></mask></defs><g style="display:inline" transform="translate(-87.4 -118.3)"><circle cx="118.1" cy="149" r="29.7" style="display:inline;opacity:1;fill:#ede5f9;fill-opacity:1;stroke:#3e1d77;stroke-width:1.95679;stroke-dasharray:none;stroke-opacity:1"/><path d="M98.6 121.1h19.8v10.1H98.6z" clip-path="url(#a)" style="display:inline;opacity:1;fill:#f5c172;fill-opacity:1;stroke:none;stroke-width:2.64583;stroke-dasharray:none;stroke-opacity:1" transform="translate(37.4 36.7)scale(.73958)"/><path d="M99.2 131.5h19v.7h-19z" clip-path="url(#b)" style="display:inline;opacity:1;fill:#f5c172;fill-opacity:1;stroke:none;stroke-width:2.30449;stroke-dasharray:none;stroke-opacity:1" transform="translate(37.4 36.7)scale(.73958)"/><path d="M99.5 132.7h18.6v.8H99.5z" clip-path="url(#c)" style="display:inline;opacity:1;fill:#f5c172;fill-opacity:1;stroke:none;stroke-width:2.64583;stroke-dasharray:none;stroke-opacity:1" transform="translate(37.4 36.7)scale(.73958)"/><path d="M99.6 133.9h18.6v.6H99.6z" clip-path="url(#d)" style="display:inline;fill:#f5c172;fill-opacity:1;stroke:none;stroke-width:2.40478;stroke-dasharray:none;stroke-opacity:1" transform="translate(37.4 36.8)scale(.73958)"/><path d="M99.6 135.1h18.6v.6H99.6z" clip-path="url(#e)" style="display:inline;fill:#f5c172;fill-opacity:1;stroke:none;stroke-width:2.40478;stroke-dasharray:none;stroke-opacity:1" transform="translate(37.4 36.8)scale(.73958)"/><path d="M99.7 136.3h18.6v.5H99.7z" clip-path="url(#f)" style="display:inline;fill:#f5c172;fill-opacity:1;stroke:none;stroke-width:2.1367;stroke-dasharray:none;stroke-opacity:1" transform="translate(37.4 36.8)scale(.73958)"/><path d="M99.7 137.5h18.6v.5H99.7z" clip-path="url(#g)" style="display:inline;fill:#f5c172;fill-opacity:1;stroke:none;stroke-width:2.1367;stroke-dasharray:none;stroke-opacity:1" transform="translate(37.4 36.8)scale(.73958)"/><path d="M99.6 138.6h18.6v.3H99.6z" clip-path="url(#h)" style="display:inline;fill:#f5c172;fill-opacity:1;stroke:none;stroke-width:1.74461;stroke-dasharray:none;stroke-opacity:1" transform="translate(37.4 36.8)scale(.73958)"/><path d="M99.7 139.6h18.6v.5H99.7z" clip-path="url(#i)" style="display:inline;fill:#f5c172;fill-opacity:1;stroke:none;stroke-width:2.06425;stroke-dasharray:none;stroke-opacity:1" transform="translate(37.4 36.7)scale(.73958)"/><path d="M226 178.7h-.2l-.2.1q-.3 0-.8-.3l.3-.2h.2v.2l.1-.1c.3 0 0 0 0 .1l.2.1zm-1.9 1.7h-1c-1 0 0 0-.1-.4 0-.4.4 0 .5 0q0 .1.2 0c.3 0 0 0 .1.2q0 .2.2 0c.3-.1 0 0-.1.2zm-4.8-.9h.1m-.3.6q-.4-.2.1 0zm-.5.7c-.3.1 0 .1 0 .1l-.3.1h-.4c-.9-.3-.2-.1-.6-.4-.4-.2.6 0 .6 0l.5.1s.4.2.2 0 0 0 .2-.3h.2l-.3.2h.3q.3 0-.4.2m-2.3-4.4c0-.1.3.3.4 0q0-.3.2.3 0 .2 0-.2l.3.2q0 0 0-.1t.4.4v-.3c0-.3.2.3.3.3v-.1q0-.1.4.2l-1-.1c-1-.2-.6-.2-1-.4q-.2-.1 0-.2m-1.4-.8v-.5q.2.2 0 .5m0-1.8v.1zm-.6-.6h-.4zl-.3.2q-.3 0 .1.1h-.3l-.3-.1h.4v-.1zm0 .9h-.1v-.1zm0 1.6h-1l-.1-.3-.2-.1.2-.1.1-.2c.1 0 0 .3.3 0s0 .2 0 .3l.3-.2v.2l.1-.2v-.1c.2-.2 0 .2 0 .3l.3-.2zm0 2h-.1v-.1zm-.7 0q.1-.2.3 0zm0 2.8h-.1m-.7-2.7.1-.3.3.3zm-.2 0c-.1-.3 0 0 .1 0zm.5-1.6v.1h-.1c-.8 0 .2 0 0-.1m0-.4-.4-.4.4.2zm.9-2c.3-.1 0 0 0 .2h-.2zm-.3.2h-.2zc.3-.1 0-.1 0 0m-1.7.8.1-.2q0 0 .2 0t.1 0l.5.2q0 0 0-.2l.3.1q0 0 0-.1l.3.2q-.5 0-.7.2h.4l-.2.1q-.2 0-.8-.2zm0-1.9q0 0 0-.2l.2-.1.1.2zm1.5 1h-.2zm-14.4 1.5h-.6.4l-.8.1c-.3 0 0 0 0 0l.4.1-.4.2-.2.1h.4l-.7.3c-.2.1.4 0 .4 0l-.2.1.4.1c.3 0 0 0 0 .2q-.2 0 0 0l.3-.1v.1q.3 0 .2.3-.2.3-.5.2l.4-.3h-1v-.3q.2-.3 0-.1v-.3c.3-.2.1-.3.3-.5q0-.1-.2-.2h.1q.1 0-.2-.2h.2q.2-.2-.2-.2h.4-.2q-.2-.1 0-.1h.5-.1.3q.1 0 0 0 0 0 .2 0l.1.2h-.1c-.1.2.5 0 .8 0 .3.1-.2.2-.4.3m-1-.8v-.1h.2l-.5.2q-.2 0 .2-.1m0-.4h.5q.1 0 0 0h.8c.3-.1-.2 0-.4 0l-.2.1h-.3l-.5.1h-.1q-.2 0 .3-.2m.3-.2c.3 0 0 0 0 .1h-.1zm-7.1-3.3q-.4-.1-.4 0 .5.3.2.3h-1l.4.2q-.2 0-.5-.2l.2-.2v-.1h.2q.3 0 .2 0h-.1l.3-.1-.1-.1h.3l-.6-.3h.3q-.1 0 0 0l-.4-.2h.3q.1 0 0-.1h-.6c.1 0 .5 0 .3-.1h-.5c-.1-.1-.6-.2-.3-.2h.6q0 0 0-.1v-.1h.2q-.1 0 0 0h.3s-.3 0 0 0h.3q.1 0 0 0h-.1l.3.1h-.2q.3.2.2.2h-.2v.1q-.1 0 0 .2 0 .1 0 .4l.3.1q.4.2 0 .2m-1.7-2h.7q-.2 0 0 0h.2l.1.1q.5.2.3.2h-.5l-.3-.1-.2-.1zm.8 0h.2zm.5.5-.4-.2h.2q.4.2.2.2m-12.1-6.2h-.1zv.3h-.5l-.6-.2c-.2-.1.4 0 .5-.1.2-.2 0 0 .3-.1l.3-.1zm0 1q0 .2 0 .2h-.2v-.3zm-.3 1h-.1q.2 0 0 0m.3-.4v.2l-.7-.1q-.7-.1-.5-.2 0 .1 0 .2h.2q0 0 0 .1-.1 0 0 .1h.3l.1.1h.1l.5.1q-.3.1-.2.2h.2-.6l-.4-.2q.3.1.1.1h-.2q.4.2.3.2s-.4 0 0 0l.2.1s-.3 0 0 0h.3q-.3 0-.1.1h.4v.2l-.5-.1-.8-.2h-.2v-.1l-.5-.3.7.3q.4.2-.2-.3l-.2-.2.3-.1-1.2-.4-.2-.2.1-.3.3.2q0-.1 0-.2l.7.3q.2 0 0-.2.1-.2.4.1.1 0 .1-.2l.5.5c.5.4 0 0 .1-.3l.2.4c.1.3 0 0 .1-.1v-.1h.1l.2.1zm-1.4 1.3v.2q-.3 0 0-.2m1.4.5c-.4.2-.6 0-1.6-.1s.2 0 .2-.2l.3-.1v.2h.5v.2l.3-.1h.2zm0 2.4c-.8.2-.9.1-1.4 0q.2-.3.2-.2c0 .2-.3.4 0 .2l.4-.3v.1q.2-.1.3 0l.4-.1v.1zm-.6 2.8h-.3c0-.3.4.1.4-.1h.2v.1zm-.6 0v-.2q.1-.1.2.2zm-.6-3.6.1-.2.2.2zm-.4.2h.2l-.1.1zm.8.7h-.5c-1.1-.1-.1 0-.2-.6h.4v.2h.3v.3m-1.4-7.2v-.3l.2-.1q0 0 .2.3zM159 165h-.7c-.3.1.2 0 .4.1h-1c-.4 0-.1.2 0 .2h.5s-.7.3-.5.3l-.2.1h.4l-.8.4c-.4.2.5 0 .5 0l-.3.2h.5c.5 0 0 .2-.1.3h.2l.3-.1v.1q.4 0 .3.4-.3.3-.7.2 0 0 .5-.3h-1.4c-.6-.1 0 0 .2-.4s-.2 0-.5 0q-.5-.1 0-.4.4-.1.5-.2c.3-.2 0-.4.3-.6.2-.3-.1-.1-.2-.2q0-.1.1-.1.2 0-.3-.2-.3 0 .3-.2h-.3l.5-.1c.4 0 0 0-.3-.1h.7c.4 0 0 0 0 0h.3c.3 0 0 0 0 0q0 0 .2 0c.3 0 0 0 0 0q0 0 .2 0-.1 0 0 .2.2 0-.1.1c-.2.2.6 0 1 0s-.3.2-.5.3m-1.4-1v-.2h.3l-.6.2zm.2-.5.2-.1h.4-.1 1.1l-.5.1-.2.1h-.5l-.6.1h-.2q-.2 0 .4-.2m.3-.3c.4 0 0 0-.1.1h-.1zm-5.5 1.6h-.2v-.2l.7.2c.5.2-.3 0-.5 0m-.1 1.6v-.3.1q.5.1 0 .2m0-.5q.1 0 0 .1zm0-1.3zM141 160q-.3 0 0 0m-.3 0v.1m1.5-.2-.2.2q-.4-.2-.3 0l.1.2q0 0 0 .1h.2q-.1.1 0 .1h-.7l.2-.3-.2.1-.3.2h-.3l.4-.2q.2 0 0 0l.2-.2h-.2l.5-.1-.3-.2s.8.2.5 0l-.9-.4h.5s-.4-.1-.2-.2l-.5-.2h.5s.3-.1 0-.1h-.9v-.1h.3l-.4-.1h.1l-.2-.1h-.2l.1-.1h.4q-.3-.2-.1-.2 0 0 0-.1h.1q-.1-.1 0 0h.3c0-.1-.4-.2 0-.1h.3s-.4-.1 0 0h.6-.3l.5.1c-.1 0-.5 0-.3.1q.6.1.4.2-.5 0-.4.2h.2c-.1.2-.4 0-.2.3q.1.3.2.6zh-.2q.3 0 .2.1m-2-1q0-.2 0 0m-.7-1.9h1.1-.1.4l.2.2q.6.1.4.2h-.8q-.6 0-.5-.1l-.2-.1c-.2 0-1-.2-.5-.2m1.2-.1h.3l-.1.1q-.5 0-.2-.1m.8.8-.6-.2h.3v.1q.6 0 .3.1m-8-3.7q0-.2.2-.2zm-.4-.6h.2zm-.1-.9q-.1 0 0 0m-.7 1v-.1q.1 0 0 0m0-.3v.1h-.1m-.2-.6h.1m-.2 0-.1-.1-.3-.2.2-.1q0 .2 0 .1.2 0 .2 0v.2q0 0 .2 0zm0 1.3q-.1 0 0 0m-.4-1.3h-.3q-.2 0-.2 0c-.4 0 0 0 .3-.2h.1q.3.2 0 .2m-7.4 2.8h-.7c-.3.1.2.1.4.1l-1 .1c-.3 0 0 0 0 .1h.5s-.7.3-.5.3q.1 0-.2.2h.5l-.9.3c-.3.2.5 0 .5 0l-.3.2.6.1c.4 0 0 .1-.2.2h.3l.2-.1v.2q.3 0 .4.2H122c-.6-.1 0 0 .3-.4s-.3 0-.6 0q-.5 0 .1-.3c.4-.2.2 0 .5-.3s0-.3.2-.6q.2-.1-.2-.2l.2-.1-.4-.1c-.3-.2.1 0 .3-.2q.3-.2-.2-.1h.5q.3 0-.3-.2h.6c.4 0 0 0 0 0h.3c.4 0 0 0 0 .1h.2q.3 0 .1 0l.1.1q.2 0-.1.2h1c.5 0-.2.1-.5.2m-.4 2q-.4.4-.8.3l.5-.3zm-1-3v-.1h.4l-.6.2q-.3 0 .2-.2m.2-.5h.2l.4-.1c.3 0 0 0 0 0h1l-.5.1-.2.1-.5.1h-.6v.1h-.2c-.2-.2 0 0 .4-.3m.4-.3q.3 0-.2.2v-.1zm-5.4 1h-.1zm-1.2 2q-.4 0-.2-.1.3 0 .3.2zm-2.5-2.1h.4zm-.1 0q-.3 0 0 0h.1zm-.8-.9-.2.2h-.2l.3-.2zm-3.8-1.1h-.3zm-.5 0-.3.1h-.2v-.1h.1l-.2-.1h.7v.1zm-.9-.2h-.3q0 0 0-.1 0 0 .2 0 0-.1.1 0h.3zm-.4-.8h.2q.2 0 0 0v-.3h.2v-.1h.1l.3.3-.8.2q.1 0 0 0m1.1 0-.4.1c0 .1.8 0 .3.2q.1-.2-.2 0c-.2 0 0-.1-.2-.2h.4m-2-1.4q-.3 0-.1-.1h.2v-.1h.1q0 0 .2 0l-.1.1q0 .1-.4 0m-1 3-.7-.4h.1q.2-.2-.2-.2l.2-.2q0-.2-.5.2h-.3q-.1 0 .1-.1 0 0 0-.1 0 0 0-.1h-.3l-.2.1q.1-.3.4-.4l.2-.2h.2c.3 0 0 .1 0 .2h.3q.2 0 0 .2c-.1.3 0 0 .2 0 .3.1 0 0 0 .1h.4q.2 0-.1.3.1.1.8.2c.3.2-.3.3-.6.4m-2.7-.7q-.1-.1 0-.2zm-.5.4q.1 0 0 0m-1.7 2.7h-.9v-.1l.1-.1h-.2v-.1h.5c.3 0 0 .1-.1.2h.8c.5 0-.1.1-.2.1m-.3 1.2h.1zm.5.3h-.6.1-.1q0-.1 0-.1h.3q.1 0 0 0h.3m-1.1-2-.1.1h-.1zm-.2-.3v.1l-.3-.1zM86.7 168zm0 .2h-.2c-.2 0-1 .2-.5 0l.7-.1zm0 1.3q-.4 0 0-.2zm0 .4q-.6-.1-.2-.2l.2-.1zm-4.2 0c-.3 0-.8-.4-.5 0 .2.4.8.3.2.4h-1.4q.5.3.5.4-.3 0-.7-.2-.2-.4.3-.4v-.2h.3l.2.1s-.6-.2-.1-.2h.5l-.3-.2h.5l-.8-.4h.4s-.4-.2-.2-.2-.5-.3-.5-.3h.5c.1 0 .4 0 0 0l-1-.1c.2 0 .7 0 .4-.1h-.7c-.2-.2-1-.3-.5-.3h1q-.3 0-.1-.1.1-.2 0-.2h.1q-.2 0 0 0h.3s-.3-.1 0 0h.4s-.5-.1-.1-.1h.6q.3 0 0 0c-.2.1-.6 0-.2.1h.5q-.5 0-.3.2c.2.1.6 0 .3.2q-.5 0-.3.1.2 0 .1.1c0 .1-.4 0-.2.2s0 .4.3.6c.2.3 0 .1.4.3q.7.2.1.3m-2.8-3.1h1.1s-.3 0 0 0h.4l.1.1q.7.2.4.2l-.1.1h-.7l-.5-.1-.2-.1zm1.3-.1h.2zm.8.8-.6-.2h.3q.5.2.3.2m-21.2 1q-.2 0 0 0m2.2-.7-1.1.4q0 0 .2.1l-.2.2q-.6.6-.2.4l.7-.4-.4.3h-.1l-.2.1-.8.2-.5.1v-.1h.4-.1l.4-.1h-.1l.3-.1q.2 0-.1 0 0-.1.3-.2.2 0-.2 0-.2 0 .1-.1.2 0-.4 0l-.6.2.2-.1h-.2v-.1h.5l.1-.1q.2 0 0 0l.4-.1q.1 0 0-.1.1 0 .1-.2l.1-.1-.5.1-.7.1v-.3l.2-.1c.2.2 0 .4.2.2q.2-.7.2-.4c0 .3-.3.6 0 .3q.7-.7.6-.5v.2l.5-.2q-.2.3 0 .3l.6-.4q0 .2.1.2.2-.1.3-.1l.1.3zm-.7 4.5h-.5v-.4h.3v-.2h.4c0 .6 1 .5-.2.6m-1.9 0v-.2q.2-.1.1-.2l.4.2q0 0 0-.1h.3q0-.2.4.2c.3.2 0 0 0-.1q0-.2.2.2zm1 2.8q.1-.3.2-.2v.1zm-.4 0h-.4l.1-.1.1-.1c.1.3.5-.1.5.1zm1.2-3.6h-.3l.2-.2zm.2.1h.2v.1zm-.6-2.2q.3 0 0 .1zm-1.4.4q.2 0 0 0l.3-.1.3.1v-.1h.3v-.1q.1 0 .2 0v-.2l.3.2s1.2 0 .2.1-1.2.4-1.6.2zm0-2.4h.2v.2h-.2zm0-.8v-.1h.1q0-.2 0 0l-.1-.3.3.1.3.1c0 .2.7 0 .5.1-.3.1-.2.2-.6.2h-.5zm2.6-1.9q.1 0 .2.2v.3l-.4-.1zm-13.6 8.5h-.5.3l-.6.1q-.1 0 0 .1h.3l-.3.2-.1.1h.3l-.6.2c-.2.2.3 0 .3 0l-.1.1h.3c.3 0 0 .2 0 .2h.3q.2 0 .2.3-.2.2-.5.1l.4-.2h-1q-.3 0 .2-.2c.1-.3-.2 0-.4 0q-.2 0 0-.2l.4-.2q0-.1 0-.4.2 0 0-.1c.1-.2 0 0-.2-.2h.2q.2-.3-.2-.1h.4q.2 0-.2-.1-.1 0 0 0l.4-.1q.1 0 0 0t.2 0q.2 0 0 0 0 0 .1 0 0 0 .1 0v.2q.1 0 0 0h.6c.3 0-.1.1-.3.2m-1-.7h.3l-.4.1zm.2-.2v-.1h.3q.1 0 0 0h.7-.3l-.2.1h-.3l-.3.1H48zm.2-.2h-.1m-7.2 6.6q-.3 0-.2.1c0 .2-.2 0 0 .2l.1.5.1.1v.2q-.2 0 0 .1v.3h-1l.4.3q-.2 0-.5-.2-.1-.2.2-.2v-.2h.2l.2.1s-.4-.1-.1-.1l.4-.1-.2-.1h.4l-.7-.3h.4l-.2-.2-.4-.2h.4s.3 0 0 0H40q.5-.1.4-.2h-.6c-.2 0-.7-.1-.4-.2.3 0 1 .1.8 0h-.1q0-.2 0-.2h.3q-.1 0 0 0h.3s-.3-.1 0 0h.4q.2 0 0 0H41h.4q-.3 0-.2.2zm-1.8-1.1h.8q-.2 0 0 0h.4q.5.2.3.2h-.9l-.2-.1zm1-.1h.1zm.6.6q-.5 0-.5-.2l.3.1q.3 0 .2.1m-14.4.2-.8.3c-.1-.2-.5-.3-.2-.2q.7 0 .4 0l-.7-.2.2-.2.1.2.3-.2q0 .3 0 .2l.5-.2v.1q.2-.1.3 0v.1q.1 0 0 .1m-.4 3zq.1-.3.1 0m-.6 0 .3-.3.1.3zm0-2 .1-.2.4-.2zm.2.5q0-.1 0-.2c-.2.2.8.1 0 .2m-.4-.7h-.7v-.6l.1.2v-.2h.1l.2.2q-.1-.2 0-.2-.2 0 0 0l.1.2s-.2-.4 0-.2q.3.1.4 0l.2.1q-.1 0 .1.1l-.2.2-.1.2zm-.4 2.1q.1-.2.3-.1v.1zm-.3 0v-.2zm0-3.8zm.3 0H25s-.3-.3 0 0zm0 0h.3zs-.3 0 0 0m-.4-.8.4.1zq.4 0 .4.1l.4.1-.3.2H25h.1q.4 0 .2-.2zm.9.8h-.1q.1 0 0 0m1.1-1.4.1.1v.2h-.2zm-2.6 1.4v-.1zm0 1.7c-.1-.1-.2-.6 0-.6zm-1.5 1-1 .3-.9.2.4-.3v.2c.1 0 .3-.6.3-.4v.3c.2-.2.3-.6.4-.4q0 .3 0 .2c.1 0 .2-.4.2-.2 0 .1 0 .4.1.1q.2-.5.2-.3c0 .3.4 0 .4 0q.1.1 0 .3m-1 4c-.3.2.4 0-.5.3h-.7s.3 0 0-.1q-.6-.2-.4-.2h.3l-.3-.2h.2q.3.1.2.2c-.2.2.2 0 .2 0h.5s1-.2.6 0m-1.7-.6H20zm-4.1.4h-1 .2c0-.2-.4-.4-.1-.3.2 0 .1.3.2 0q-.2-.1 0-.1h.3c.1 0 .6-.4.5 0s.9.3-.1.4m-1.7-2q-.5.4-.8.4h-.2l-.2-.1h-.1l.4-.1h.1l.2-.1c0-.1-.3-.1 0-.2l.2.2-.1-.2h.2zm-16.4 4.7q-.8.3-1.2.4h-.2c-.4.2-.3.1-1 .2s.2 0 .4 0q.2-.1-.4-.2c-.2-.1.4 0 .8-.1h.2q.4-.1 0-.2l.6-.1q.3 0 0 0v-.1l.5-.3v.2q.3-.2.3-.2l.2.3zm-.7 4.2-.4-.1.5-.1.1-.2v.5zm-.3-.7.1.2h-.2zm-.3-2.6h-.1m-.2.3-1.1.2v-.2h.9q.3 0-.2-.1l.5-.1q-.3.3 0 .1l.7-.4-.5.5zm-1.1 1v-.1h.1zm0-2.6h.2v.2h-.2zm.9.7H-4zm-1-1.9zl.3.2q.2 0 .2 0c.1.2.8 0 .5.1l-.2.1h-.5q0 0 0-.1h-.3zm1.3 1.3h-.2q.1-.2.2-.1m-1.2-2.1c-.2 0 .1.4-.4.1l-.1-.1h.2q.1 0 0-.2h.2v-.1h.4l-.2-.2.3-.1h.1q.3-.2.2 0c-.2.1.2 0 .2 0v.2q0 .1.2 0c0-.1.1-.4.1-.1q0 .3.1.1c.2-.1.3-.5.4-.2q0 .4.2 0v-.1q.2.5.2.2c.1-.3 0-.8.1-.3l.1.5h-.2l-.8.2c-.1 0 .7.1 0 .1zl.6.3q.3.2.5.1l-.4.2-.7.1zm-.7-.8v-.1h.3v-.1q.1 0 .4-.2 0 0-.2 0t.1-.3l.1-.2.5-.2v.3l.2-.1.2.2q.2 0 .4 0v.1l.5-.2q.1.2.3 0-.1.2.1.1l.4-.2.1.1c.1 0 0 .6-.6.6H-4l-.6-.1h.1q-.5.3-.3.3.3-.2.2 0v.1H-5zm-.1 1zm0 1h-.2l-.1-.4v-.4h.3zm3.5-1.4-.3-.1.2-.3.1.1zm-1.1-3.2h-.1zm29.3-6.9H26q.1 0 0 0m33.2-6.3v-.5zm2.5-5.6h-.1zm24.4 4.5zm7-6.3H93m12.9-10.7h-.2.3zm0 0h.1m1.2.4zm.4-.5-.2.1h-.2q0 0 .4 0m69.6 9.2h-.1zm2.3 5.1v.5zm33.4 6.9q-.2 0 0 0m28 12.6v-4.6l-.3-.1h.3v-2.6h-.4q-.2 0-.2-.4v-.4h.4v-.2h.2v-1.4q-.2.2-.5.1h-.3v-.4q0-.2.2-.1 0 0 0-.2-.2 0 0 0v-.2l.1-.1h-.1q-.2 0-.3-.2v-.2q0-.2.3 0l-.2-.1h.2l-.1-.2q-.1 0 .2 0 0-.2-.2 0h-.3q-.1.2 0 0h-.3q-.1 0 0 .4-.1 0-.2 0h-.1q0 .2 0 .4.1 0 0 .1h.3q.1.1 0 .4h-.3l-.3-.1q-.1-.1-.1 0l-.3-.1-.5-.2c-.4-.2-.2 0-.2 0 0 .2.4.3.4.3v.1h.1l.1.1q.1 0 0 0l-.2.3q-.1.1.4 0c.3 0 0 0 0 0q0 .2.2 0 0 0 0 .2.2 0 .1 0h.1q.2 0 0 0l-.1.1q-.2 0 .4 0c.5 0 0 .1 0 .2h-.8q-.2 0 0 0 .1 0-.2.1l-.4.1q-.3.1.4.1c.3 0 0 0 0 .2l.2-.1q.2 0 0 .1h.2c.3 0 0 0 0 .1q-.1 0 .4 0c.3-.1 0 0 0 0q0 .1.3 0c.3 0 0 .1 0 .3q0 .5-.3.5l-.6-.1c-.3 0 0 0 0 0q0 0-.2 0l-.6.1c-.4 0-.1 0-.5.3v.1h.4q.3 0-.2.1h.3q.2 0-.1.2h.1q.2 0 0 .1l-.2.2.6-.2q.1 0 0 .1 0 0 .2 0 .1-.1 0 .1l.3-.2c.4-.3 0 0 0 0v.2h.1v.2q.2 0 .3.2 0 0 .4 0 .3.1.2.3h-.4l-.8-.1h-.7.4l-.2.2h.5c.3.1 0 .1 0 .2h.3c.3.1 0 0 0 .1l.6.2c.3.1 0 0 0 0l-1.3-.3c-1-.4-.1 0-.1 0h-.8l-1-.4c-.6-.2 0 0 0 .1q.2 0 0 .2c-.3 0 .1.1.3.2q0 0 0 .1t.2 0c.3 0 0 0 .1.1.2.2 0 0 .3 0q.2 0 0 .1 0 .2.3 0c.3 0 0 0 0 .2q0 .1 0 0h.3v.2q0 .2.3-.1c.3-.2 0 .1 0 .3q-.1 0 .4 0c.4-.1 0 0 0 .1q-.2.3.4-.2c.4-.2 0 .2-.2.3h.6s-.2.2.4.3h-.9l-.3-.2q-.4-.1-.3 0l-.6-.3-1.6-.8c-1-.7 0 .1 0 .3v.5l.3-.1.1.3.4-.1v.5c.1.2.3-.1.3 0v.6q-.1.2.5-.2c.4-.1 0 .2 0 .3l.5-.2c.2 0-.2.4-.2.6q-.1.3.7-.3c.4-.3 0 .1 0 .3 0 .3.2 0 .6 0 .4-.2 0 0-.1.2q-.3.2.8-.1c.8-.2 0 0-.2.1-.2.2.4 0 .6.1l-1 .1h-1q-.9-.2-2.2-.1h-1c.3 0 .4.1-.5.2-.8.2 0 0 .3.1q.6 0 .5.2h.7l-1 .5q0 .1 1.5.1c.8 0-.4.1-.8.2q-.4.2-.8.2c-.2 0 .3.2.6.4.3 0 0 0 0 0l.7.3c.6.1 0 0-.4.2s-.3.1-.7.3c-.5.2 0 0 .3.2.4 0 0 0-.3.2s0 0 .3.2h-.2l-.9.5c-.5.2.1.2.3.2l-.5.2c-.3.1.5.2.7.2l-.2.3q.1.2.7.2h-.7c-.5-.1-.4 0-.8 0l.6.3h-.3c-.1.1.5.2 1 .3.4.2-.1 0-.5.2l-1.1.2c-.7 0-.4 0-.2-.2q.3-.2-.1-.2t0-.3c.3-.2-.1 0-.2-.2h.5c.3 0-.1 0-.3-.2l.5-.2c.4-.2 0-.1 0-.1l.2-.2q0 0-.4 0h-1.3.2q.3 0 0-.2c-.3-.1 0 0 0 0h.8q.8.1-.1-.1c-.5-.2 0 0 .2 0l.5-.1s-.5-.3-.4-.4l.5-.1h-.5q-.3 0-.5-.2c-.3-.2 0 0 .4-.3.3-.3-.2 0-.8 0q-.6 0 0-.2l.6-.3c.3-.1-.7 0-.6-.2h-.1l.3-.4q0 0-.2 0l.2-.2q.2 0 .2-.4c0-.3-.1.2-1 .6s0 0 .1-.3q.1-.4-.1-.1l.2-.3v-.1l.4-.4q.1-.2-.8.1c-.6 0 .1 0 .4-.2q.2-.2-1.2 0c-1 0 .1 0 .4-.2l.2-.3q.2-.2-.1-.2-.1 0 .2-.2t0-.2h-.4.2-.4l.3-.2.2-.3h-.6c-.4.1 0 0 .2 0q.2-.1-.6-.1-.3 0-.6-.3-.1 0 .5-.1c.4-.2 0-.2-.1-.2l.6-.2c.4-.2 0-.2 0-.2h.2c.3-.2 0-.4.3-.5q.4-.1-.5 0c-.5 0-.2 0-.1-.2l-.6.2-.9-.1c-.5-.1-.2-.1-.2-.1h.9c.3 0 0-.1 0-.1h.4q0-.2 0-.2l.4-.1c.1-.2-.3 0-.8-.3-.5-.1.2 0 .3-.2h-.3l.5-.4c.4-.4-.1 0-.4.2l-.9.2c-.6.1-.1 0 .4-.2s0 0-.1-.1q0 0 .3-.3v-.1l-.6.1c-.4.1-.1-.4-.2-.4v-.2l.4-.4h.5q.1 0-.3-.4l.3-.1q.2-.2-.2-.2l.2-.2q0-.2-.5.2l-.6.1q-.2 0 0-.3 0-.3.3-.4l.2-.2q0 0-.1 0l.2-.2q0 0-.2 0h-.4q.2-.2.3-.2-.2 0 0-.2c0-.3.2-.2-.4-.3-.5 0-.2 0-.2-.3q0-.2-.2 0t-.3.4l-.2.2q-.1.2.1.2l-.3.2.1.2-.3.2q-.2 0 .3.2c.4.2 0 .4-.1.6q0 .3 0 .4l.1.3h-.2l-.1-1.1q0-.2-.3-.1h-.1v-.5q0 0-.2 0v-.1l-.1.2v.3l-.2.2h-.2l.2.2q.1 0 0 .2l-.1.2h.2v.1l-.1.1h-.1l-.5.2h.3q0 .2 0 0h.1q.2.1-.3.3h.2l-.2.2h-.3q-.3.2.2.2l-.4.3h.3l-.2.1-.3.2h-.3q-.6-.1-.7 0-.2 0 .2.1.3 0-.4.3c-.4.2 0 .1 0 .1h.5c.4-.2-.2 0-.1 0h.2q0 .2 0 0l.4.1c.3 0 0 .1-.1.2h.8c.5 0-.1 0-.2.1h-1.4q-.6 0-.1.1.3 0-.2.3c-.3.2 0 0 .1 0v.5l.6-.2h.1c-.3.2 0 .2 0 0l.2.1-.3.4v.2q-.1.1-.2 0v.3l-.5.1c-.4.1 0 .2.1.2h-.7c-.7.2.1.2.3.2h.9-.1l-.3.1c-.4.1 0 .1 0 .1h-.7c-.4 0 0 .2 0 .2v.1l-.4-.2s.6 0-.2-.3 0 0 .1-.1c.2-.1.4 0-.4-.2-.8 0 0 0 .1-.4.2-.4-.1.1-.4.2-.3 0 0 0 0-.5.2-.6 0 0-.3.3s0 0 0-.6-.2.3-.3.1-.2.7-.3.4c-.2-.2-.1.5-.2.4q0 .1-.3.3c-.4-.2 0-.1 0-.2l-.6-.3q-.2 0 0-.2v.1q-.2 0 0-.2 0-.2-.2-.1 0 .1-.2.4-.2 0-.2 0l-.3.1.1.1q.2 0-.2.2h.2l-.2.2q-.7 0-.1-.1c.4-.2-.3 0-1 0s-.5 0-1-.3c-.3-.2.6 0 .4-.1-.2-.2.5 0 .4 0l.3-.1q.4 0 .3-.2 0 0 .1 0l.2-.1q.6.1-1.1-.5c-1.2-.4.1 0-.2 0l-.6-.3c-.4-.2.2 0 .2 0q.2 0 .2 0 .2 0 .4 0 0 0 .2 0t.2 0 .4 0c.3-.2-.2-.2-.2-.2s.3 0 0-.1q-.3-.1-.1-.2v-.4q0-.2.3.4c.3.4 0 0 0-.1h.3v-.2h.1l-.3-.3q-.3-.2 0-.2l-.7-.3h-.3q-.6-.1-1.6-.5c-1.2-.6-.1-.1 0-.1q.2 0 0-.2 0-.3.2.2 0 .3 0 0c0-.3.2 0 .4.1v-.2q0-.2.2.3.2.2 0-.2 0-.2.3.3 0 .3 0-.2c0-.1.5.4.7.3h.3l-.2-.5-.3-.1q-.2 0 .2 0 .2 0-.3-.1l-.9-.3c-.5-.2 0 0 .3-.1q.2 0-.2-.1-.2-.3-.7-.5l-.5-.3q-.3-.2.2 0l-.1-.2q-.1 0 0 0h.3l.1-.1q.1 0 .1-.1 0 0 .2 0t-.1-.1q-.1 0 .1-.1l-.5-.2h.2l-.5-.2q-.3-.2-.1-.2l-.2-.1q-.2 0 .4 0c.3-.1 0-.1 0-.2l-.4-.2h.3-.1q0 0 .2 0l-.2-.2q-.2 0-.3-.3h-.2l-.5.4c-.3.2 0 0 0 0v.2q-.2.1.2 0l-.3.2-.3.2-.3.2h.2-.8c-.5 0 0 0 0 0l-.8-.2v-.4q0-.3.1.3l.1-.2c0-.3 0 0 .1.1q0 .3.2 0 0-.3.2.2.2 0 .1-.2l.1.2h.1v-.2h.2q0-.1.1 0 .2 0 .3-.2 0 0 .2 0l-.3-.1c-.3-.1 0 0 .1-.1h-1.5q-.6-.2-.4-.3v-.1l.4.1h.3l.3.1q0-.1 0-.2.1.1.4.1l.1-.1q.1 0 .2 0v-.2l.3.2q0-.1 0-.2h.4l-.3-.3s.5 0 .2-.2c-.2 0 .2 0 .3-.3l-.4.1-.3.1-.9.2-.9.1h-.4l.7-.2h.5-.1.4c.3-.1 0 0 0-.1h.3c.3-.2 0 0-.1-.1q0 0 .3-.2.2 0-.2 0l.2-.1h-.5l-.8.1h.3q.2 0-.3-.2h.8q.2 0 0-.1h.4q.2-.1 0-.2l.2-.1.1-.2-.6.1h-1.2.1l.3-.1h-.1c-.2 0 .4-.3.3-.4h.2q0 0 0-.1h-.3v-.1h-.6q-.2 0 .1 0h-.5l-.1-.3v-.3h.2q0-.1 0-.2h.3v-.1h.2v-.1h.1v-.1h.3v-.1l.1-.1q.3 0-.4 0l-.4-.2q0 0 .2 0 0 0 0-.2h.3q.1-.1-.1-.1-.1 0 0-.2l.2-.2q0-.2-.5.3l-.5.2-.2-.1v-.3h.2l-.1-.2h.1v-.2l-.2-.1q0 0 0-.2 0 0 .2 0h-.2l.1-.1v-.1q-.1 0 .1 0 0-.2 0 0h-.4q0 0-.2 0v.3h-.2v.2q0 0 0 .2h.2q.1 0 0 .3h-.2l-.2-.2q-.1-.1-.1.1l-.3-.1-.3-.2q-.3-.1-.1.1l.2.2h.2v.1l-.1.2q-.2.1.3 0 .2 0 0 .1.2 0 0 0 0 .1.1 0h.1q.2 0 0 .1-.1.1.3.1c.4 0 0 0 0 .1h-.6q-.2 0 0 0l-.2.1-.3.1h.3c.3 0 0 .1 0 .2h.3q.2 0 0 0 0 .1.3 0c.3 0 0 0 0 .1h.3q.1 0 0 .2 0 .4-.3.4h-.4c-.3-.1 0 0 0 0h-.6c-.3 0-.1 0-.4.3h.3c.3 0 0 0-.1.1h.2l-.1.1q.2 0 0 .1v.1h.3q.1-.1 0 0h.2q.2 0 0 0 0 .2.3-.1c.3-.2 0 0 0 0v.2q0 .1 0 0v.2h.3q0 0 .2 0 .2.2.2.3h-.3l-.6-.1h-.6.4l-.1.1.3.1q.1 0 0 .1h.2c.3.1 0 0 0 .1l.4.1c.3.1 0 0 0 0l-.9-.2c-.8-.3 0 0 0 0h-.7l-.8-.3c-.4-.2 0 0 0 .1q.2 0 0 0 0 .1.3.3 0 .2.2 0 .1 0 0 .2h.2q.1 0 0 0 0 .2.3 0 .1 0 0 .2h.2v.1q0 0 .2 0c.3-.2 0 0 0 .1q0 .2.3 0c.3 0 0 0 0 .2l.3-.2c.3-.1 0 .1-.1.2s.4 0 .4 0q0 .1.3.2c.5 0-.2.1-.3.1l-.3-.1-.3-.1q-.3-.1-.2 0l-.5-.2-1.2-.7c-.8-.4 0 .2 0 .3v.3q0 .2.3 0v.2h.3v.3q.1.1.3 0v.4q0 .2.3 0c.3-.2 0 0 0 .1q0 0 .4 0 .2 0-.2.4 0 .2.6-.3c.3-.2 0 .1 0 .3q0 0 .4 0c.4-.2 0 0 0 0q-.2.3.6 0c.6-.1 0 0-.2.1h.5q0 .2-.8.2l-.7-.1h-2.4q.5 0-.4.2h.2q.4 0 .3.2l.6-.1c.5 0-.6.4-.7.5h1c.7 0-.2.1-.5.2l-.6.1.4.3c.3 0 0 0 0 0l.6.2c.4.1 0 0-.3.2l-.6.2q-.3.1.3.1.2 0-.3.2-.2.1.3.2h-.2l-.7.4h.3l-.4.2c-.3.1.3.2.5.2l-.1.2q0 .2.5.2h-1.1q-.3 0 .4.2.3 0-.2 0 0 0 .7.3h-.4c-.3.2-.3.1-.8.2q-.6.1-.1-.1.1-.1-.1-.1t0-.3q.1 0-.2-.1h.4q.2-.1-.2-.2l.4-.1c.3-.2-.1-.1-.1-.1l.2-.2h-1.3.2q.2 0 0-.1c-.3-.1 0 0 0 0h.6q.6 0 0-.1c-.4-.2 0 0 0 0h.5l-.4-.3.4-.2h-.4l-.4-.1q-.2 0 .3-.2.3-.2-.5 0-.5 0 0-.2l.4-.2c.2-.1-.5 0-.4-.1l-.1-.1.2-.2q0 0-.1 0l.1-.2.1-.3c0-.3 0 .1-.7.4s0 0 0-.2q.1-.2 0 0l.1-.3.3-.4-.6.1c-.4 0 .2 0 .3-.2l-.9.1c-.7 0 .1 0 .3-.2l.2-.2q.1-.1-.1-.1l.2-.3q.2 0 0 0h-.4l.2-.1h-.3l.3-.2.1-.2-.5.1.2-.1q0 0-.4 0-.3 0-.5-.2c-.2-.2.1 0 .4-.2h-.1l.4-.3q.3 0 0 0l.2-.2c.3 0 0-.2.3-.3h-.5c-.3 0 0 0 0 0q0-.1-.5 0h-.7q-.3-.1-.1-.1h.7c.2 0-.1-.1-.1-.1h.3q0-.1 0-.1t.3-.2l-.5-.1c-.4-.2.1 0 .2-.2h-.3l.4-.3c.4-.3 0 0-.3.1q-.1.2-.6.2-.6.1.3-.2h-.1l.2-.2v-.2l-.4.2c-.3 0-.1-.4-.2-.4q0-.3.3-.4h.4l-.2-.3.2-.1q.1-.1-.1-.1 0 0 0-.2l-.3.1-.4.2q-.2 0 0-.3-.1-.2.2-.3l.1-.1.1-.2h-.4l.2-.2q-.2 0 0-.1.1-.2-.3-.2c-.4 0-.2 0-.2-.2q0-.2-.2 0l-.1.2-.2.2q0 0 0 .2l-.1.1v.2h-.2q-.1.1.2.3c.3.1 0 .2 0 .4v.5q0 .2-.1 0l-.2-.3v-.1l-.2-.2q-.1-.1 0-.2v-.4h-.1v-.2l-.2.3v.3h-.3l.2.2q.1 0 0 0l-.1.3h.3q.3 0-.3.2h-.3c-.3.2.1.1.3.1l-.2.2h.1l-.4.2.2.1q0 0 0 .2l.2.2.2.1q.3 0 0 .1h-.5l-.6-.2h-.6q-.1.1.2.1l-.3.2c-.3.2 0 .1 0 .1h.3c.4-.1 0 0 0 0l.4.1c.3 0 0 0 0 .1h.6c.4 0-.1.1-.2.1h-1q-.4 0-.1.1.2 0-.2.2-.2.1.1 0 0 .1 0 .4l.5-.2.3.2c.4 0 0 0 0 0q-.2.1.2.2.2 0 0 0l.1.1h.4q.2.1-.3.2-.4 0-.6-.2t-.1.1q0 0-.2 0v.2l-.4.1q-.2.1.1.1l-.5.1c-.5.1.1 0 .2 0h.7c.4 0 0 .1-.3.2-.3 0 0 0 0 0h-.5c-.3.1 0 .2 0 .2v.1q0 0 .1 0t.1.1q0 .2.2 0l-.2.2h.4q.2 0 0 .1-.2.2.1.1l.2.1h.3l-.8.3q-.1.1.2.1l-1 .2h.2l-.5.3-.3-.1c-.4-.1-.1-.2 0-.2q0 0 0-.1-.2 0 0-.1.3 0-.2-.1l.1-.1h-.1v-.1h-.3q.1-.1-.1-.2-.1 0 0 0v-.3h-.1v-.1h.1q.2 0 0-.1v-.1h-.2l.2-.4h-.2q-.2 0-.1-.1.2-.2 0-.2v-.6h-.1q0 0 0-.1h-.2l.1-.3h-.1l.2-.4h-.3l.1-.3-.2-.1q-.1 0 0-.1s.3.1 0 0l-.3-.2.3-.1h-.5q.1-.1.1-.3v-.3q0 .4-.1.2l-.1-.1q0 .1 0 0l-.3-.4v.3h-.1q.2.1 0 .2-.3 0-.1 0 .3 0 .2.1l-.3.2q-.2 0 0 0c.2.1.6.1.2.2h-.4q-.2.2 0 .2h.2c-.3.1 0 .1-.2.2h-.2s-.3 0-.1.1q.5.2.2.2h-.3l.2.2h-.4c0 .2.4.2 0 .2l-.4.1q.1.1-.1 0-.3 0 0 0 0-.2 0-.2-.1 0 0-.1.5 0 .3-.1-.3 0-.2-.1l.4-.5h-.2l.4-.2h-.3l-.4.2c-.2 0-.7.1-.4 0q.7 0 .6-.2-.2.1 0 0l.2-.3-.3.1q0 0 0-.1l-.3.2h-.2s.3-.2 0 0l-.4.1q0 0 .3-.2l.2-.2.2-.3s-.3.3 0 0q.3-.3.1-.3h-.1q-.3 0-.2-.1h.1l-.2-.2q.4 0 .1-.1l-.2-.1q0 0 0-.1l-.3-.1h.2l-.2-.2h.1l-.1-.1h.2l-.3-.1-.2-.2h.1q0-.1 0-.2-.2 0 0 0l-.1-.2v-.1h-.2l-.2-.3v.2q0 0-.1 0 .2 0 0 0l-.4.2q.1 0 0 0-.4.2-.2.2t.2.1l-.2.1h.1l-.1.1h-.2l.1.1v.2s.3 0 0 .1q-.3 0-.2.1.2 0 0 .1h-.3q.2 0 0 .1-.3 0-.2.1h.1q0 .1 0 .2s.3 0 0 .2h-.3l-.4-.2h.1l-.7-.2s.3 0 0 0l-.4-.3h.1q0-.2.2-.2.1 0 .1 0-.2-.2 0-.2h.3l-.1-.1q0 .1.1 0h.2v-.1s.3-.1 0-.1h-.4q.2 0 0-.1c-.2-.1-.6-.2-.3-.2h.6c.1 0 .7.1.2 0h-.4s.3 0 0-.1l-.2-.1v-.2h-.2q0-.1 0-.1-.3.1-.6.1t-.3-.1h.5q-.2-.1 0-.2h.2s-.3-.1 0-.1h.3c0-.1.3.2.3 0v-.2q.3 0 .1 0-.3-.2-.1-.2.3 0 0-.1h-.9c-.1 0-.5-.1-.2-.1h.6q-.3 0-.1-.1h.4s-.3-.2 0-.1h.3q.1 0 0 0l-.3-.2h.1q0-.2-.4-.2l-.6.2h-.4q-.1 0 0 0l.2-.2h.2v-.2q.3-.1.1-.2l-.3-.1h.2q-.4-.2-.2-.2h.2l-.3-.2-.2-.1h.3l-.1-.2.1-.2h-.1v-.3l-.1-.2q0 .3-.1.1 0 0 0 .1v.2h-.1q0 .1 0 .2l-.2.2v.1q0 0-.2.3h-.1l.1-.2v-.3c0-.1-.3-.3 0-.4q.3 0 .1-.1-.1 0-.1-.1v-.2h-.1q0-.1 0-.2l-.1-.2-.1-.2q-.2-.1-.2 0 .2.3-.2.2-.3 0-.1.1l-.1.2h.2-.3v.3l.3.3v.2l-.4-.1-.3-.1q0 0 0 .1-.2 0 0 .1.1 0 .1.1l-.2.2h.3l.2.4s.2.4-.1.3l-.4-.1v.1l.2.2s-.4 0 0 0q.6.3.2.2-.5 0-.6-.2c-.1-.1-.5-.4-.2-.1l.3.3h-.2s.5 0 .2.1q-.6 0-.5.1l.2.1v.1h.3q-.1 0 0 .1h.2v.1h.3-1.5q.1 0 .2.3h.1q-.1 0 0 .2l.4.1s-.3 0 0 .1q.3 0 .2.1 0 .2-.4.2h-.3q.3.1.1.1-.4 0-.4 0l.1.1.2.2h-.2.1-.3l.2.2q-.2 0-.1.1l.1.2c.2.1.8.3.3.2l-.8-.1c.1.1.6.2.2.2s-.6-.3-.5-.1l.3.2v.3c0 .2.6.5 0 .2s-.5-.6-.5-.4v.3l.2.1h-.1l.1.3s-.6 0-.4.1l.3.2q.4.1 0 .1-.6-.2-.5 0 .5.2.3.2l-.3.1h-.4l.3.1-.3.2h.5q-.6.2 0 .2h.4s.3 0 0 0q0 0 0 .1h.2-.9q-.2 0-.2 0l.1.1s-.3 0 0 0l.3.2q-.3 0-.2.1h.3q-.2 0-.1.1v.3h-.1q.3.3-.1.2t-.7-.2h-.3l.6-.2h-.2q.6-.2.4-.3h-.9.4q-.2-.2 0-.3h.4l-.4-.3c.1 0 .6.1.2 0l-.5-.3q-.3 0-.1-.1.3 0 .2-.1-.4-.1-.2-.2h.2c-.3-.2-.2 0-.4-.3-.3-.1-.7 0-.3-.1l.5-.2s-.3 0 0 0q.4-.1.3-.2l-.5-.1c-.2-.1-1-.2-.4-.2h.9c-.1-.1-1-.5-.6-.4h.8c.2 0 .7 0 .1-.1q-.7-.1-.3-.2h-3.2v-.1h.4c-.2-.2-.7-.3-.2-.2q.7.3.5.1c0-.1-.3-.2 0-.1q.3.2.3 0s-.2-.4 0-.2l.5.3c0-.2-.3-.5-.1-.4l.3.1q-.2-.2 0-.2.4.3.3.1v-.4q.1.1.2 0v-.2h.3v-.2l.3.1v-.3s.7-.6 0-.2l-1 .5-.4.1h-.2l-.2.1-.3.1c-.1 0-.7-.1-.3-.1q.5 0 .3-.2s.4.2.3 0c0 0-.3-.2 0-.1q.3.3.2.1t0-.1q.3.1.3 0-.1-.1 0-.1 0 .2.1 0v-.1h.2q0 .1 0 0t0-.1h.3q-.1 0 0 0 .1-.2.2-.1.1 0 .1 0l.3-.2q-.2 0 0 0c0-.1.3-.3 0-.2l-.7.2h-.5s.6-.2-.1 0l-.8.2q-.1 0 0 0l.3-.1h.3q-.1-.2 0-.2h.3q-.1 0-.1-.1h.3-1.3q0-.1.2-.2h.2q0 0 .2 0v-.3q-.2-.1 0 0 .4.1.3 0-.1 0 0 0t.1 0h.4-.1q0-.1 0-.1h.1c0-.1-.3-.2 0-.2h.2c-.2-.2 0-.2-.3-.2h-.5q.1-.2 0-.1h-.4q-.2 0-.2-.3t0-.2q.3 0 .2 0-.2 0 0 0h.3q-.2 0 0 0h.2q-.1 0 0-.1h.1s-.3 0 0 0h.2l-.2-.2h-.2q.1 0 0 0h-.4c0-.1-.4-.2 0-.1h.2v-.1q-.2 0 0 0v-.1q.1.1.1 0h.1q-.2-.1 0-.1.3.1.2 0v-.1q-.2 0 0 0v-.1l.3-.2q.1-.1 0 0h-.4l-.2.1-.3.1h-.2v-.3h.2v-.3l-.1-.3h-.4q0 .1 0 .1h.1v.2l-.2.1v.3l.1.1v.2q0 0-.2 0v-.8l-.2.1c-1 .5-.5.1-.7 0v.8l-.7-.2q-.5-.1-.4-.2h.5l.5-.3c.3-.2-.4 0-1.1 0s0-.1-.1-.2l-1-.2v-.5c.1-.5 0 0 .1.3q.2.3.2-.2c0-.4 0 .1.1.2 0 0 .1.3.2 0 0-.4.2 0 .3.1q.2.2.1-.1 0-.2.2.1.1.1.2 0v-.1q.2 0 .2-.1-.1-.2.1 0 .3 0 .4-.2 0-.1.2 0l-.4-.2c-.3-.2.1 0 .2-.1h-2q-.7-.2-.5-.4v-.2l.5.3q.2 0 0-.1h.4q.1-.1.4.2.1-.2 0-.3.2.1.5.1l.2-.2.2.2v-.4l.5.2v-.2h.5c0-.2-.4-.4-.4-.4s.6-.1.3-.2c-.4 0 .2-.1.3-.4q.3-.2-.5.1c-.3 0-.1 0-.4.2l-1.2.2-1.2.1h-.6l1-.2h.6-.1l.5-.2c.4 0 0 0 0 0h.4c.5-.2 0 0-.1-.2l.5-.2q.2-.1-.3 0c-.4 0 0 0 .2-.1q.1-.1-.7 0l-1 .2c-.6 0 .1 0 .4-.1l-.4-.2h.8l.2-.1q.4 0 0-.1l.6-.1q.3 0 0 0 0-.2 0-.2l.3-.1.1-.2-.9.1-1.4.1q0-.1 0-.2h.5-.2c-.2-.1.5-.5.4-.5h.2q.2-.2 0-.2h-.4q0 0 0-.2l-.7.2c-.4 0 0 0 .1-.1q.1 0-.4 0h-.3l-.1-.4v-.4h.3q.2-.1 0-.3h.4v-.1h.2q0 0 0-.2h.2v-.1h.4l-.1-.2h.2q.4-.2-.5-.1-.7 0-.5-.2v-.1h.2l.1-.1q0 0 .3-.2h-.2q-.1 0 .2-.2l.2-.4-.7.5c-.4.3-.3.2-.6.2-.4 0-.2 0-.3-.1v-.4q0 0 .2 0l-.1-.2q0-.2 0 0h.1v-.3h.1-.2l-.2-.2q0 0 0-.2t.2 0q.2 0-.1-.1 0 0 .1-.1v-.1q-.2-.1.1-.1h-.1l-.4.1q0-.1-.2 0-.1 0 0 .4-.2 0-.2 0h-.2q0 .2.2.3v.2h.1c.3-.1.1.3.1.4h-.3q-.1 0-.3-.2t-.2.1l-.3-.1-.5-.3q-.4-.1-.1.1l.3.2v.2h.2q.2 0 0 .1l-.1.3q-.2 0 .4 0c.3-.1 0 0 0 0q0 .1.1 0 .1 0 0 .1 0 .1.1 0 0 0 .2 0v.1h-.2q-.1.1.5.1c.5 0 0 .1 0 .2h-.6c-.4-.1-.2 0-.2 0q-.1 0 0 0l-.2.1h-.4q-.3.2.4.2.3 0-.1.1h.2q.1 0 0 0h.3q.1 0 0 .2h.3c.4-.1 0 0 0 0q0 0 .4 0c.3-.1 0 .1 0 .3q0 .4-.3.5l-.6-.1c-.4-.1 0 0 0 0h-.8c-.4.1-.2.1-.5.4l-.1.1h.4c.4 0 0 0-.1.1q-.1 0 .2 0 .1 0 0 .2.2 0 0 0l-.1.2.5-.1c.3-.1 0 0 0 .1h.2c.3-.2 0 0 0 0q-.1.2.4-.2c.4-.2 0 0 0 .1v.4q0 0 .1 0l.3.1q0 .1.3 0 .4.2.3.4h-.5l-.7-.1q-.5-.2-.8-.1l.5.1-.2.1.5.1c.3 0 0 0 0 .2h.3c.3.1 0 0 0 0l.5.3c.4 0 0 0 0 0l-1.2-.3c-1-.4-.1 0-.1 0l-.8-.1c-.8-.2-.5-.2-1-.4s-.1.1 0 .2q0 0 0 .1-.3.1.2.2.1.1 0 .2h.3c.3-.1 0 0 .1.1q0 .2.2 0 .2 0 0 .1 0 .1.3 0c.4 0 0 0 0 .2q0 .1.1 0l.2-.1.1.3.3-.2c.3-.1 0 .2 0 .3q-.2.1.4 0c.3 0 0 0-.1.2q-.1.2.5-.2.3-.1-.2.3h.5q-.2.1.5.2c.5 0-.3.2-.5.1h-.4l-.4-.3q-.3 0-.2 0l-.7-.2-1.6-.9c-1-.6 0 .2.1.4v.4q0 .2.3 0v.3l.4-.2.1.6c0 .2.2-.1.3 0v.5q-.2.2.4-.1c.4-.1 0 .1 0 .3l.5-.2q.3 0-.2.6c0 .3.3-.1.7-.4.4-.2 0 .2 0 .4q0 .1.6 0c.5-.2 0 0 0 .1q-.3.3.7 0c.8-.2 0 0-.2.1h.6c.3.1-.5.2-1 .2l-1-.1h-3.1c.3 0 .4 0-.5.2-.9.1 0 0 .2 0q.6 0 .5.3l.8-.1c.6-.1-.8.5-1 .6h1.4c.9.2-.3.2-.7.3q-.6 0-.8.2l.6.3c.3.1 0 0 0 .1q-.2 0 .7.2c.6.2 0 0-.4.3s-.3.1-.8.3 0 0 .4.1q.3 0-.3.3-.3.1.3.1.3 0-.2.1l-1 .5c-.5.2.2.1.4.1q.1 0-.5.3c-.4 0 .5.1.6.2q.2 0-.1.3c-.1.2.4 0 .7.1h-1.5c-.3 0 .2.3.6.4h-.3l.9.3c.5.1 0 0-.5.2l-1 .1c-.8.1-.5 0-.2-.1q.2-.2-.1-.2-.5 0 0-.4h-.3q.1-.1.5-.1.3-.1-.3-.2l.6-.2c.4-.2-.1-.2-.1-.2l.2-.1q.2-.2-.4 0h-1.3.2q.4 0 0-.2c-.3-.2 0 0 0 0h.9q.7.1-.1-.2c-.5-.2 0 0 .1 0h.6l-.5-.4.5-.2h-.5c-.3 0-.2 0-.5-.2l.4-.2c.4-.3-.2 0-.7 0q-.7 0 0-.3.3 0 .5-.2c.3-.2-.6-.1-.5-.2l-.2-.1q.2 0 .3-.3.1 0-.1 0t.2-.2l.1-.5c0-.3 0 .2-1 .6-.8.4 0 0 .2-.3 0-.3 0 0-.1 0l.2-.4q0 0-.1 0l.4-.5-.8.2c-.5 0 .2-.1.4-.3q.2 0-1.2.2c-.9 0 .2-.2.4-.3q.3-.2.3-.4.1 0-.2 0 0-.1.3-.4.3-.2 0-.1h-.5l.2-.1h-.4l.4-.2.2-.2h-.6c-.4 0 0 0 .2-.1q.1-.1-.6 0c-.4 0-.3-.1-.6-.3q-.3-.1.5-.2c.4-.1 0 0-.1-.1q-.1 0 .5-.3c.4-.2.1-.1 0-.1l.2-.1c.4-.1 0-.4.4-.5h-.5c-.5 0-.2 0-.2-.1l-.6.1h-.8l-.3-.1h1c.3-.1-.1-.1-.1-.1l.4-.1q0-.1 0-.1.1 0 .4-.2.2 0-.7-.2c-.5-.2.2 0 .2-.2h-.3l.6-.5-.4.2q-.3.2-1 .3l.5-.2c.5-.2-.1 0-.2-.1q.2 0 .3-.3l.1-.2-.6.2c-.4 0-.1-.5-.2-.5v-.1l.3-.4h.5q.2-.1-.2-.4c-.2-.1.2 0 .3-.2l-.2-.1.1-.2q.1-.2-.5.1l-.5.2q-.1 0-.1-.3t.4-.5l.2-.1q0 0-.1 0l.2-.2h-.3q-.4 0-.3-.1l.3-.1q-.1 0-.1-.3c.1-.2.3-.1-.3-.2-.5 0-.3 0-.3-.3q0-.3-.2 0t-.2.4l-.2.1q-.1.2 0 .3l-.2.2v.2l-.2.1q-.2 0 .3.3c.3.2-.1.4-.2.5q0 .1.2.1l-.2.4q.1 0 .2.2 0 .2-.2 0-.2 0-.2-.3t0-.2l-.3-.3q-.2-.1 0-.2.1-.1 0 0l-.1-.2v-.2q0-.1 0-.2h-.1v-.2l-.2.3v.5h-.2q0 0-.2 0l.3.2q.1 0 0 .1l-.2.3h.5q.3 0-.5.2l-.4.2c-.3.1.1 0 .4 0q.1 0-.3.2-.1.1.2.1l-.5.2q-.3.1.2.2.1 0 0 .2-.2 0 0 .2h.2q0 .1.3.3.4 0 .1.1h-.7l-.9-.3q-.5-.2-.7.1h.2q.2 0-.3.3c-.4.2-.1.2-.1.2l.5-.1c.4-.1-.1.1 0 .1h.5c.4.1 0 .2 0 .2h.7c.6 0 0 .2-.2.2l-.6-.1h-.7q-.6.1-.1.2.2 0-.3.3-.2.1.2 0v.5l.6-.3c.2 0 0 .2.4.2s0 0-.1.1q-.2 0 .3.1c.4.1 0 .1 0 .2h.2q0 .2.1 0l.5.1-.5.2q-.5 0-.8-.3-.1-.2-.1.2h-.3v.3l-.5.1q-.3.1.2.1l-.8.1c-.6.2.2.1.4.1h.9c.5 0 0 .1-.4.2-.4 0 0 0 0 0l-.8.1c-.4 0 .1.2.1.2v.1q0 0 .2 0 .1 0 0 .2c.2.2 0 0 .3 0l-.2.1q0 .2.5 0 .2 0-.1.3-.1.2.2 0 .3.1.3.2 0 .2.1 0h.3l-1 .4c-.3.1.1.1.1.1l-1.1.3h.1q.2.1-.7.3h-.3c-.5-.2-.2-.3 0-.4h-.1q-.2-.1.2-.2l-.4-.1q-.1-.2.2-.2h-.5c-.3-.1 0-.1 0-.2l-.4-.1c-.4-.1 0-.3.1-.3q-.1 0 0-.2l.2-.1q.2 0-.3-.1h-.2l.1-.1q.1 0-.3-.3h.4q.3-.1-.4-.3c-.3-.2 0 0 0 0q.3-.2 0-.2-.1 0-.5-.2c-.3-.1 0-.1 0-.2h-.1q0 .2 0-.2 0 0-.1 0l-.2.3q-.2.2-.3 0v.2h-.2.1q.1 0-.2.3h.1l-.2.2q-.1 0 .2 0l-.1.3h.1q.2 0-.2.2h-.5q-.2 0 .3.1l-.2.1q-.3.2-.1.2h.2l-.3.2h.3l-.4.2c-.3 0 0 .1 0 .1h-.1l-.4.1c-.3.1 0 .1.1.2h.2l-.4.3h.2q.2 0-.3.2-.2 0 0 0h-.3q-.2 0 .3.5c.3.4 0 0-.1 0l.3.3q.1.3 0 .1l.2.3.5.4-.6-.3c-.5-.3 0 .1 0 .2l-.3-.1-.4-.4v-.4q-1 .1-.8 0l.4-.4q-.3.1-.3 0l.2-.3h-.3l.2-.5h-.3l.2-.6q0 0-.2 0-.4 0-.2-.2t0-.3q-.2-.3-.2-.5.1-.3 0-.4h-.1q.1-.1 0-.2h-.4l.2-.4h-.2l.3-.7h-.4l.1-.4-.3-.2q-.2 0-.2-.2c.2 0 .7.3.2 0q-.7-.2-.5-.2l.3-.2-.2-.1h-.5q.3 0 .2-.4v-.5q-.2 0-.2.2v.3l-.2-.3s0 .4 0 0q-.3-.5-.4-.5t-.1.2q.1.4 0 .3c-.1 0-.4-.1-.1 0q.4.1 0 .2h-.2q.5.1.3.2l-.4.4c-.1 0-.4 0 0 0 .3.1 1 0 .3.2q-.7.1-.6.2c0 .1-.3.1 0 .1s.9 0 .4.1c-.5.2-.2.2-.3.3l-.4.1s-.5 0-.1.1c.3.2.8.2.4.3h-.5c-.1.2.3.3.3.3h-.6c.1.3.6.2.1.4q-.8 0-.7.1.1.3-.2.1-.4 0-.1-.2.3-.1.2-.2-.4 0 0-.2.7 0 .4-.1-.6 0-.3-.2l.5-.8h-.3q.5-.2.6-.3l-.5.1-.6.3c-.3 0-1 .2-.5 0l.8-.3q-.3.1-.1 0l.4-.5-.4.1v-.2q0-.1-.2 0 .1.2-.4.4-.4.1-.3 0s.6-.4 0-.1l-.5.3q-.1 0 .5-.4l.2-.3q-.1 0 0 0l.3-.4c-.1 0-.4.4-.1 0l.3-.5h-.3q.2 0 0 0-.6-.1-.4-.2h.3l-.4-.3h.2c.1 0 .4 0 0-.2h-.3l-.1-.1s.3 0 0-.1q-.7-.2-.4-.2h.3l-.3-.2h.2q0 0 0-.2h-.3q.4 0 .3-.1-.2 0-.5-.2l-.3-.1h.2l-.1-.3h.1l-.2-.2h.2q-.3-.2-.2-.2l.1-.1h-.3v-.1h-.2l-.2-.5q-.1 0-.1.1v.3l-.1-.1q.1 0 0 .2l-.6.2c0 .1.4 0 0 .2-.2.1-.6.1-.3.2q.5 0 .3.1-.3.2-.3.3h.2-.3q-.4 0-.2.2h.3q-.2 0-.1.1 0 .1 0 .2s.5.1.1.2l-.5.2q.3 0 0 .1-.4 0-.4.1s.4 0 .1.1c-.2.2-.6.1-.3.2q.3 0 .2.1-.4 0-.1.1c.1.1.4.2 0 .3l-.4.1-.6-.2c.1 0 .6 0 0-.1l-1-.3s.4 0 0 0c-.2-.2-.9-.4-.9-.4h.4q0-.3.2-.2.4 0 .3-.2-.4-.2-.2-.2c.2 0 .7.2.5 0 0-.1-.4-.3-.1-.2.2 0 .1.3.2 0q-.1-.1 0-.1h.3v-.2s.4 0 0-.1h-.7s.4 0 0-.1-1-.2-.5-.2h1.3l-.7-.2s.5 0 .1-.1q-.6-.1-.5-.2.2-.1 0-.2-.1 0-.2 0 0-.3-.1-.2l-.8.3q-.6 0-.5-.2h.5l.2-.1c0-.1-.3-.1 0-.2h.4c-.1-.2-.6-.2-.2-.2.5 0 .3-.1.5-.2.2 0 .6.4.6.2q0-.3 0-.4c.1 0 .4.2.1 0q-.5-.3-.2-.3.5 0 0-.1c-.5 0-.5-.2-.8-.1h-.9.8c0-.2-.4-.2 0-.2h.5s-.5-.3 0-.2h.5s.3.1-.1 0q-.7-.4-.4-.3.4 0 .3-.1-.2-.3-.8-.1l-.9.3h-.7q-.2-.1.1-.2l.3-.1.3-.2q0 0 0-.1-.2 0 0-.2c.1-.1.5 0 .2-.2q-.6 0-.5-.2h.2q-.4-.3-.3-.3c.2 0 .7.1.4 0l-.5-.2q-.7-.2-.4-.2h.4l-.1-.3q-.1 0 0-.1.3-.1.2-.3h-.2q0 .1 0 0l-.1-.2v-.2l-.2-.3v.1l-.1.1q0 0 0 .1v.3q0 .2-.2.1c0 .3.3 0 0 .3l-.2.2v.2q0 .3-.2.5h-.2l.1-.3q0-.1 0-.4c0-.3-.5-.5-.1-.6q.5-.2.3-.3l-.3-.1v-.3l-.2-.1c0-.1.3 0 0-.3l-.1-.2q0 0-.3-.3t-.2 0c0 .3.3.2-.2.3q-.7 0-.3.2-.1.3-.1.2t.3.2h-.6l.2.2h-.1q0 .1.2.2.3.2.4.4 0 .4-.1.4l-.6-.2c-.3 0-.6-.3-.5-.1l.2.1q-.3 0-.2.2c.1.1.5 0 .3.2q-.4.2-.3.3h.5l.3.5q0 0 0 .1s.3.6-.1.5l-.6-.2v.2q.3.3.3.2c0 .1-.7 0-.1.1.5.2 1 .4.4.3l-.9-.3c-.3-.1-.8-.6-.4-.2q.6.5.5.5h-.3c0 .1.8 0 .3.2q-1 .1-.8.2.3.3.5.2-.1 0 0 0l.4.1s-.4 0-.1.1h.4l.1.1h.4-.2l-.5.1h-.4l-.5-.1q.1 0 0-.1-.1 0 0 0l.1-.1h-.5v-.1h.1v-.2q.2 0 0 0l-.2-.1v-.1h.2l-.1-.1-.2-.1h.3v-.1h.1v-.3.1h-.1l-.2.1v-.3q0 0 0-.1v-.2q0 0-.1 0v-.1l-.1-.2v.2q-.2 0-.2 0l.1.1.1.4v.2h-.4l.2.1v.1h.2v.2l-.1.1h.1v.2l-.1.2-.3-.2q0-.3 0-.2h-.3l.3-.2q.3-.2 0-.2h-.4.1-.3l.3-.2.2-.3h-.6c-.4.1 0 0 .2 0q.1-.1-.6-.1-.3 0-.6-.3-.1 0 .5-.1c.4-.2 0-.2-.1-.2l.6-.2c.3-.2 0-.2 0-.2h.2c.3-.2 0-.4.3-.5h-.5c-.5 0-.2 0-.1-.2l-.6.2-.9-.1c-.5-.1-.2-.1-.2-.1h.9c.3 0 0-.1 0-.1h.4q0-.2 0-.2l.3-.1c.2-.2-.2 0-.7-.3-.5-.1.2 0 .3-.2h-.3q-.3.1.5-.4c.4-.4-.1 0-.4.2l-1 .2.5-.2c.6-.2 0 0-.1-.1q0 0 .3-.3v-.1l-.6.1c-.4.1-.1-.4-.2-.4v-.2l.4-.4h.5q.2 0-.3-.4l.3-.1q.2-.2-.2-.2l.2-.2q0-.2-.5.2l-.6.1q-.1 0 0-.3 0-.3.3-.4l.2-.2q0 0-.1 0l.2-.2q0 0-.2 0h-.4q.2-.2.3-.2-.1 0 0-.2c0-.3.2-.2-.4-.3-.5 0-.2 0-.2-.3q0-.2-.2 0t-.3.4l-.2.2q-.1.2.1.2l-.3.2.1.2-.3.2q-.2 0 .3.2c.4.2-.1.4-.2.6q.1 0 .2 0l-.2.4q.1 0 .2.3h-.2l-.2-.4v-.2l-.3-.3q-.2-.1.1-.2 0-.2 0 0-.2 0-.2-.2v-.2q0 0 0-.2-.2-.2-.2-.1v.5l-.2.2h-.2l.2.2q.1 0 0 .2l-.2.2h.5q.3 0-.4.3l-.5.1c-.3.2.2 0 .4 0q.2.1-.3.3-.1 0 .2 0 .1.1-.5.3-.3 0 .2.2.2 0 0 .1 0 .1 0 .2l.3.1.3.2q.3 0 0 .1 0 .2-.6 0-.4 0-1-.3-.5-.1-.7.1-.2 0 .3.1.3 0-.4.3c-.4.2 0 .1 0 .1h.5c.4-.2-.2 0-.1 0l.6.1q.3 0-.1.2h.8c.5 0-.1 0-.3.1h-1.3q-.6 0-.1.2.3 0-.2.2c-.3.2 0 0 .1 0v.5l.6-.2.5.1c.4 0 0 0-.2.2h.4c.3.1 0 .1 0 .2l.2.1h.5q.1.2-.5.2-.4 0-.8-.3-.2 0 0 .2-.2.2-.3 0-.2 0 0 .3l-.6.1c-.3.1.1.2.2.2h-.7c-.7.2.1.2.3.2h.9c.5 0 0 0-.4.1s0 .1 0 .1h-.7c-.4 0 0 .2 0 .2v.1q0 .1.2 0c.3 0 0 0 .1.2q0 .2.2 0 .2-.1-.1.2h.5q.2 0-.2.2 0 .2.3.1l.2.2h.4l-1 .4h.2l-1.2.3c-.5.1 0 .1.1.1l-.6.3-.4-.1c-.4-.2-.1-.2 0-.3q.1 0 0-.1-.2 0 .1-.2l-.3-.1q-.2 0 .1-.1l-.5-.1q-.2 0 0-.1t-.4-.2c-.4-.1.1-.3.1-.3q0 0 0-.1l.2-.2h-.2l-.3-.1h.2l-.3-.3.3-.1q.3-.1-.4-.3c-.3-.1 0 0 .1 0q0-.1 0-.1l-.6-.3q-.2 0 0-.2v.1q-.1 0 0-.2 0-.2-.2-.1 0 .1-.2.4-.2 0-.2 0l-.3.1.1.1-.2.2h.1q.2 0-.1.2-.2 0 .1 0l-.1.3h.1q.2 0-.2.2l-.5.1h.3q.2 0-.2.2-.2 0 0 .1h.1l-.3.2h.3q.3 0-.4.2a202.2 202.2 0 0 0-.5.3c-.3 0 0 0 .1.1h.2l-.4.3h.3q.1.1-.4.2-.1 0 0 .1h-.3l.3.5c.3.4 0 0 0 0l.1.2h-.2c0 .1.4 0 0 .2h-.2q-.3-.1-.2.1v.2l-.4-.2.4.5h-.1q-.4 0 0 .2h.2-.1l-.4-.1q-.4-.2-.5-.2 0 .2.6.4h-.3l.4.5-.2.1q.3 0 0 .1l-.4.1s.4 0 .1.1c-.2.2-.6.1-.3.2h-.3s.4-.2.3-.3h-.5c-.4-.2 0-.2.4-.3q.3-.1-.2-.1l-.3-.2c-.2 0 .2 0-.3-.2s.1 0 .4-.1c.3 0 0 0 0-.2q.2-.1-.6-.1.1 0 0-.1h-.3.6c.4-.1.1-.1 0-.2h-.1q.3 0-.1-.2l-.2-.1q-.2-.1.3-.2h-.3q-.2 0 .1-.3h-.1q-.2 0 0-.2v-.3q-.3 0-.4.6c-.1.3 0 0 0 0q0-.1-.2.2h-.1v-.3q0-.1-.2-.1v.1h-.3q0-.3-.1-.2l-.6.3.2-.1q.1 0 0 0l.1-.2.1-.2h-.1l-.2.1h-.2.1q.6-.1.4-.2h-.2v-.1c.5 0 .3-.1.5-.2.2 0 .6.4.6.2q0-.3 0-.4c.1 0 .4.2.1 0q-.5-.3-.2-.3.5 0 0-.1t-.8-.1h-1 .9c0-.2-.4-.2 0-.2h.5s-.5-.3 0-.2h.5s.3.1-.1 0q-.6-.4-.4-.3.5 0 .3-.1-.2-.3-.8-.1l-.9.3h-.3v-.1l-.1.2-.3-.1q-.2-.1.1-.2l.3-.1.3-.2q0 0 0-.1-.2 0 0-.2c.1-.1.5 0 .2-.2q-.6-.1-.5-.2h.2q-.5-.3-.3-.3c.2 0 .7.1.4 0l-.5-.2q-.6-.1-.4-.3h.4v-.2q-.3 0-.1-.1.3-.2.2-.3h-.2q0 .1 0 0l-.1-.2v-.2l-.2-.3-.1.2q0 0 0 .1v.3q0 .2-.2.1c0 .3.3 0 0 .3l-.2.2v.2q0 .3-.2.5h-.2q.1-.3.2-.3l-.2-.4h.2c-.1-.3-.6-.5-.2-.6q.5-.2.3-.3l-.3-.1v-.3l-.2-.1c0-.1.3 0 0-.3l-.1-.2q0 0-.3-.3t-.2 0c0 .3.3.2-.2.3q-.7 0-.3.2-.1.3-.1.2t.3.2h-.6l.2.2h-.1q0 .1.2.2.3.2.4.4 0 .4-.1.4l-.6-.2q-.5-.2-.5-.2l.2.2q-.3 0-.2.2c.1.1.5 0 .3.2q-.5.2-.3.3h.5l.3.5q0 0 0 .1.2.1 0 .4h-.7q.3.4.3.3c0 .1-.7 0-.1.1l.3.1.2.1v.1c-.7-.1-.7-.1-1-.3l-.2-.1v-.1l-.3-.1v-.1l-.2.1-.6.2h-.3q-.1 0 0 0v-.2q0 .2.1.1v-.2q0 0 .1 0 0 0 .2 0v.1h.3q0 0 0-.1l-.2-.1q0-.1 0-.2h.3q0 0 0-.1v-.1h.1q0 0-.2 0l-.4.1c-.2.1 0 0-.2 0h.1q.2 0 .1-.1h.1v-.1q0 0 .1 0l.1-.1h.2l.2-.1-.2-.1h.1l.2-.1h-.2l.1-.1.2-.1q0 0-.4 0c-.3.1 0 0 0 0l-.2.1h-.2q0 0 .1 0h.2l-.2-.2h.3q.1-.1 0-.1v-.1l.2-.2-.3.1q0 0-.2 0l.1-.2h.1l-.1-.1q.2-.2 0-.2l-.4.3q-.2.2-.4.1-.2 0 .1-.1h.2v-.2h.2l.2-.1q.2 0 0-.1h-.2q-.2 0 .1-.2h.1q.1-.2-.1 0h-.4v.1q.1.1-.2.2 0 0 0-.1l-.1-.2h.1-.1v-.1q0 0 0-.1v-.1h.2v-.1h.2q0 0 0-.1 0 0-.2 0h-.2v-.6l.2-.2h-.1v-.1l-.1.1v.2h-.1v.4l-.1.2h-.1q0-.2 0 0l-.2-.1v-.1.2q.2 0 .1.1h.3l-.2.1q0 0 0 .1 0 0 0 .1l-.2.1v.2q0 0 .1 0v.2h-.3q0 0-.1 0h.1q.1 0 0 0-.2 0 0 .1 0 0 0 .1.2 0 0 0v.3h-.2l-.3-.2-.4-.1.2.2q.1 0-.1 0l.3.2h-.2l.3.1q0 0 0 .1h.2q.2 0 0 0l.1.2q0 .1 0 .1h-1.1l.3.1-.1.2q0 0 .2 0v.2h.1q.3 0 .2.2l-.2.2h.6q.1 0 .1.1.2 0 .1.2l.6.2c.4 0-.3.2-1 .2s-.3 0-.9-.4l-.4.1q-.2 0 .2.2h-.5q.2-.2.3-.2-.1 0 0-.2c0-.3.2-.2-.4-.3-.5 0-.2 0-.2-.3q0-.2-.2 0t-.3.4l-.2.2q-.1.2.1.2l-.3.2.1.2v.1h-.3q-.1.1.1.2v.2h-.2.2v.2h-.1q0 0 .2 0 .2.1-.2.2h-.4c-.2-.3 0 0 .1-.3q0-.2 0 0-.2 0-.2-.2v-.2q0 0 0-.2l-.1-.1-.1.2v.3l-.2.2h-.2l.2.2q.1 0 0 .2l-.1.2h.4q.3 0-.4.3l-.5.1q-.2 0 .4 0v.1l-.3.2h.2q.1.2-.5.3-.3 0 .2.2.1 0 0 .1 0 .1 0 .2l.3.1.1.1v.1h-.2q-.2.1 0 .1h-.2q-.4 0-1-.3-.4-.1-.7.1 0 0 0-.1h-.1l-.1.1q0 0-.1 0v.1H99h.1l-.1.2v.2q0 0 0 .1h-.3l.1.1-.1.1q0 0 0 .1-.1 0 0 0 .2 0-.1.1-.2.1 0 .1h-.3q0 .1 0 .2h.2l-.2.1q.1 0 0 .1H98l.1.3q.2.1 0 0l.1.2.1.2.3.2-.3-.2c-.3-.1 0 0 0 .1h-.2l-.2-.2h-.3l.3.3h-.1l.4.1H98l-.3-.1-.2-.1q0 .1.3.2h-.2l.3.4q.1 0-.2 0-.1 0 .2.2.2 0 0 0l.1.1q.1 0 0 .2h-.1l-.4-.2c-.3 0 0 0 0-.1q.1 0-.2 0 .1 0 .1-.2h-.2q-.2 0 .2-.2h-.1l-.2-.1-.1-.1q-.3 0 .2 0 0 0 0-.2h-.4q-.3 0 .2-.1.2 0 0 0l-.2-.2q-.1 0 .2-.1.1 0-.2 0 0-.1 0-.2.2 0 0 0v-.2q-.1 0-.2.3h-.1q0 .1 0 0l-.1-.2v.3q0 .2 0 .2h-.3l.1.1-.3.2q-.2 0 .1 0l-.2.2v.1q0 0-.3-.2-.2 0 0-.2v.1q-.2 0 0-.2 0-.2-.2-.1 0 .1-.2.4-.2 0-.2 0l-.3.1.1.1q.2 0-.2.2h.2l-.2.2q-.2 0 .1 0l-.1.3h.2l-.3.2-.5.1h.3q.2 0-.2.2-.2 0 0 .1h.1l-.3.2h.3q.3 0-.4.2a126.2 126.2 0 0 0-.5.3q-.2 0 .1.1h.2l-.4.3h.3q.2.1-.4.2-.1 0 0 .1h-.3l.3.4c.3.5 0 0 0 0q-.2 0 .2.4.2.2 0 0l.2.4q.6.3.5.4l-.6-.4c-.5-.2 0 .2 0 .2l-.2-.1c-.4-.1-.3-.2-.5-.3q0-.1-.1 0v.2l-.4-.2.4.5q.2.1-.1 0l.8.4h-.5l-.6-.3q-.4-.2-.5-.2s.3.4.6.4h-.3l.5.7c.3.3 0 .1-.3.2q-.3 0 .4.2.5 0 0 .2-.1 0 .2.1c.2.2.2 0 0 .3q-.5.1-.3-.1l-.7-.2c-.5-.1 0 0 .1-.3q.2-.2-.6 0s.4-.2.3-.3H91c-.4-.2 0-.2.4-.3.4-.2 0-.1-.1-.1l-.4-.2c-.1 0 .2 0-.3-.3-.5-.1.1 0 .4 0s0 0 0-.2q.2-.1-.6-.1c-.7-.2 0-.1.3-.2.4 0 .1 0 0 0l-.4-.4q-.2-.1.3-.2.3 0-.2 0t0-.3h-.1q-.2 0 0-.2v-.3q-.3 0-.4.6c-.1.3 0 0 0 0q0-.1-.2.2-.1.2-.1-.3 0-.1-.1-.1-.2 0-.1.5 0 .3.2.4H89l.3.2q.2 0-.5.3c-.5.2 0 0 .1 0q.2 0 0 .2-.4 0-.4.2l.1.3h-.4l.3.7q0 0-.2 0l.1.4H88q-.2.2 0 .3h-.2l.1.3q0 .3-.3.5-.1 0 .1.3t-.2.2h-.2l.2.6q-.1.1-.3 0s.2.5.1.6h-.2l.2.3H87l.4.4q.2.1-.7 0v.3h-.1q0 .4-.4.4l-.3.1s.5-.4 0-.1l-.6.3.5-.4.3-.3s-.3.1 0-.1l.2-.3c-.1 0-.4.4-.1 0q.5-.6.3-.5h-.2q-.7-.2-.4-.2h.2l-.4-.3h.2c.1-.1.4-.1 0-.2l-.3-.1q.1 0 0-.2-.7 0-.5-.2h.3l-.3-.2h.2q.1 0 0-.1l-.3-.1h.3q-.1 0-.5-.2l-.2-.1h.1q-.2-.3 0-.4.2 0 0 0l-.1-.1h.1l-.2-.3h.1l-.2-.1-.3-.1-.2-.4h-.1v.3c-.1 0 .2 0 0 .1l-.6.3q-.3 0 0 0c0 .1.3 0 0 .1q-.7.2-.4.3h.4q-.5.3-.3.3h.1l-.2.1q-.5 0-.3.1l.3.1q-.2 0 0 0l-.1.2s.5.2.1.3q-.6 0-.4.2s.3 0 0 0l-.5.2s.4 0 .2.1q-.6 0-.4.2h.2q-.3 0 0 .2s.4.1 0 .3h-.4q-.9-.1-.7-.2h.1l-1.1-.3s.4 0 .1-.1l-1-.4h.4q0-.1.3-.2.3 0 .2 0-.3-.4-.1-.3h.5l-.2-.2q.2.1.2 0 0-.2.1-.2.3.2.2 0v-.1s.5-.1 0-.1h-.7s.4 0 0-.2c-.4 0-.9-.1-.4-.1h.9c.2 0 1 0 .4-.1l-.8-.1c.1 0 .5 0 .2-.2q-.5 0-.5-.1v-.2h-.3q.1-.4-.1-.2t-.8.2c-.2 0-.7 0-.5-.1h.5q.3 0 .2-.2s-.3 0 0-.1q.6 0 .4-.1c-.1-.1-.6-.2-.1-.2l.4-.1c.2 0 .6.4.7.2q-.2-.3 0-.5s.3.2 0 0q-.4-.2-.2-.2.4-.1 0-.2-.5 0-.8 0h-.8q.9 0 .8-.1c-.1 0-.5-.1-.1-.2h.6s-.5-.3-.1-.2l.5.1s.3 0 0-.1q-.7-.2-.4-.3h.2q-.2-.2-.7-.2l-1 .3q-.5.3-.6 0-.3 0 0-.1.4 0 .4-.2l.2-.1q0 0 0-.2-.2 0 0-.1.5-.1.2-.2l-.5-.2s.4 0 .2-.1q-.4-.2-.3-.2h.4l-.4-.2q-.8-.3-.5-.3h.5l-.2-.2q-.2-.1 0-.2.4-.1.3-.2h-.2q0 0-.1 0v-.2l-.1-.3-.1-.2-.2.2q0-.1 0 0 0 0 0 .1v.2l-.1.2q-.2-.1 0 0c0 .3.2 0 0 .3l-.3.2q0 0 0 .2t-.2.4q-.1 0-.2 0 .1-.2.2-.3l-.2-.3.2-.1c0-.2-.5-.4-.2-.6q.6-.1.3-.2-.3 0-.3-.2.1-.1.1-.2 0 0-.3-.2.2 0 .1-.2l-.2-.2q0-.1-.2-.4-.2-.1-.2 0c0 .3.2.3-.3.3-.6.1-.4 0-.3.3q0 .3-.1.2l.3.1-.4.1q-.2 0-.2 0l.2.2q-.2 0 0 0l.1.2q.4.1.4.4v.3l-.6-.1q-.6-.3-.5-.2l.1.2q-.2 0-.2.2c.1 0 .5 0 .3.1q-.3.4-.2.4h.5q0 .3.3.4v.2s.2.5-.2.4l-.6-.1v.1q.3.3.4.3s-.7 0-.2.1c.6.2 1 .4.4.3l-.9-.3c-.2-.2-.8-.6-.4-.2l.6.4h-.3c0 .2.7 0 .2.3q-.9 0-.7.2l.4.1q0 0 0 .1l.4.1H74h.5q0 .1 0 .2h.5-1.1q-.7-.1-.6 0h-.7c.3.2 0 .4.4.5q.3.1.1.1s-.3 0 0 .2l.6.2s-.5 0-.1.2q.8 0 .5.1c-.3.2-.2.3-.6.3h-.6c.2.2.6.2.2.2q-.6-.1-.6 0l.2.2.4.2h-.4.2-.5q-.3 0 0 .2.3 0 .3.3h-.2q0 .2.3.4c.2.2 1.3.3.4.3s-1.4-.3-1.2-.1 1 .3.4.2-1-.3-.8-.1l.4.4.1.4q-.2-.1 0 0c0 .4 1 .7 0 .4-.8-.4-1-1-1-.6q0 .3.2.4.4.3.2.2-.1 0-.1 0c0 .2.4.3.2.3q-.1 0 0 .1c0 .1-1 0-.7.2l.6.3q.7.3 0 .2c-.5 0-1.1-.3-.7 0q.7.3.4.3c-.3.1-.2.2-.5.2H70l.5.1-.5.4h.6c.1 0 .6-.1.1 0-.4.3-.7.3 0 .3h.8s.3-.2 0 0q-.5 0 0 .1h.2-1.3q-.5 0-.4 0l.2.2s-.5 0 0 .1l.5.2c-.2.1-.6.1-.3.2h.5c-.1.1-.5 0-.3.2q.4.2 0 .3t0 .2c.2.2.5.3-.2.2q-.8 0-1.1-.2c-.4-.1-1 0-.5-.2l.9-.2h-.3l.6-.4h-1.5c.3 0 .8 0 .7-.2 0-.1-.3-.2-.1-.3s1 0 .6-.2l-.5-.2c.2 0 .9 0 .3-.2l-.9-.4q-.5 0-.2-.1.6 0 .3-.2c-.2-.2-.6-.1-.3-.2s.8 0 .4-.2c-.5-.1-.3 0-.8-.3s-1 0-.4-.2l.8-.2c0-.1-.4 0 0-.1.2-.2.7-.3.5-.4l-.8-.1c-.4-.1-1.6-.2-.7-.3h1.4c-.2-.2-1.6-.8-1-.7q1 .3.8.1t.5-.2h.2c-.9-.2-.8-.2-.5-.3h-3.2l-1 .2c-.4 0-1.2-.1-1-.2h.7c-.2-.2-1-.4-.2-.2q1 .4.8 0c-.1-.1-.6-.3-.1-.1.4 0 .5.3.5 0s-.4-.6 0-.3.9.6.8.3-.5-.6-.2-.5l.5.1c0-.1-.4-.4 0-.3q.5.4.5.2l-.1-.6q0 .1.3 0v-.5l.4.1v-.3q.4.1.5 0-.1-.1-.1-.4c0-.1 1.1-1 0-.3-1 .6-1 .7-1.5.8l-.7.3q.1-.1-.2 0l-.4.2h-.9c.6 0 .4-.2.5-.3s.6.2.5 0c-.1-.1-.5-.4-.2-.3q.6.4.5.3c0-.3-.4-.3 0-.3q.4.1.4 0s-.4-.4 0-.2q.2.3.2.1v-.3h.2q.1.3.1.1c0-.2-.3-.2 0-.2q.5.1.4 0-.2-.1 0-.1c.2 0 0 .2.2 0 .1-.1-.2-.2.1-.1q.4.1.3 0-.2 0 0-.1c.1 0 .5-.2.3-.2q-.3 0 0-.2s.5-.3 0-.1-.3.2-1 .3l-.9.2s1-.5 0-.1l-1.3.4s-.4 0 0 0l.5-.3s-.3 0 0 0h.4c0-.2-.4-.2-.1-.2l.5-.1-.2-.1c.2 0 .8 0 .5-.2l-.8.1-.7.2h-.5q0-.2.3-.4h.3q0-.2.3-.1v-.1q.1 0 .1 0v-.3c0-.1-.4-.4 0-.1q.5.4.4.2c0-.1-.3-.2 0-.1q.3 0 .2 0s-.3-.2 0 0h.5-.1q-.2-.2 0-.2-.2 0 0-.1h.2c-.1-.1-.5-.2-.1-.2h.3c-.3-.3-.1-.3-.5-.4h-.8s.4-.2 0 0h-.6q-.4-.1-.3-.4c0-.2-.3-.5 0-.4q.4.1.3 0s-.3-.1 0 0q.5 0 .4 0-.1-.1 0-.1h.3q-.2 0 0-.1.2 0 .2 0s-.4 0 0 0q.6 0 .3-.2h-.4q-.3 0-.1-.1 0-.1 0-.2l-.3.1h-.5s-.6-.1 0-.1h.4l-.2-.1v-.1h.1q.3.1.2 0-.2-.2 0-.2.3.1.2 0s-.4 0 0 0q.4.2.3 0l-.2-.2q0 0 0-.1h.2v-.2l.4-.2q.2-.3-.1-.1l-.5.2-.3.2q0-.3-.2-.1-.1.3-.3.2h-.3q-.1-.5 0-.5h.3q0 0 0-.1v-.3l-.2-.1q0-.3 0-.4H64q0 .1 0 0h-.4q-.2 0-.1 0s.3-.1.1 0v.1q.1 0 .1.1h-.1l.2.1q0 .2 0 .2l-.2.2h-.2l.1.1v.2h.1q-.1.3 0 .2h.1v.4q0 .2-.3.1c-.3 0-.2.1-.6-.2-.4-.2-.7-.6-.7-.4l.2.3q.3.2.2.2h-.2q.1.3.3.2v.1h.3v.1q.1.2-.5.2H62q.3.1.2.2-.1 0 0 .1h.4l-.1.2q.1 0 .2 0 0 0 0 .1h.3l-.1.2h.4q-.1 0 0 .2h.3v.4l-.1.4h-.7c0 .1.5.2 0 .1l-.7-.1q0 0 0 .1h-.3q-.2 0 0 .2h.2c-.1 0 .6.4.4.5h-.2.4l.1.2h-1.4l-.9-.2q.1 0 .1.2l.3.1q0 0 0 .2-.3 0 0 0 .7 0 .5.1t0 .1h.2c.5.2 1.1 0 .9.2q-.6 0-.4.1l.4.1-1-.1q-.8-.1-.7 0h.2-.3q.6.2.5.3H61l.4.2s-.4 0 0 0h.5q-.4 0-.1.1h.6l1 .2h-1.8l-1.2-.3-.4-.1c-.5-.1-.7-.4-.5-.1.1.2.7.3.3.4l.3.1s-.5.3-.4.4h.5v.3l.5-.3v.4l.2-.1.2.2.4-.1v.2l.5-.2c0 .1.4 0 .4 0q-.1.1 0 .1l.4-.2.1.1c.1 0 0 .5-.5.5H61q-.6-.1-.7 0c.1 0 .5-.1.2 0l-.4.2q.3 0 .2 0 .1.3.4.2.2 0 0 0 .1.2.3.1v.2q0 0 .2 0 .2-.4.2-.2 0 .5 0 .2c.2-.2.3-.6.4-.2q0 .3.2 0s.1-.5.1-.2q0 .6.2.2v-.3l.2.6h-.2q-.7 0-.9.2c-.1 0 .7.1 0 .1h-1.2l.6.3q.2 0 .4 0 .1 0-.4.3l-.7.1v-.8c-.2.1.3.5-.7 0h-.1v.8H59v-.2l.1-.1v-.3l-.2-.1v-.2h.1v-.1q0 0 0-.1l-.2.1q0 0-.2 0 0 0 0 .2 0 0-.1 0v.3q0 0 .1 0t0 .3h-.3q-.1-.1-.1 0l-.2-.1-.3-.1q-.3 0-.1 0l.2.2h.1v.1q.2 0 0 0v.2q0 0 .2 0 .1 0 0 0 0 0 .1 0 0 .2 0 0h.1q.2 0 0 .1l.3.1c.3 0 0 0 0 0q-.1.1-.4 0h-.1q-.1 0 0 .1H58l-.2.2h.2c.3 0 0 0 0 0q0 0 .2 0v.1h.1q.1 0 0 0h.3q.1 0 0 .1h.2q0-.1 0 .2 0 .2-.2.3h-.4q-.2 0 0 0h-.5c-.2 0 0 0-.3.2v.1h.3-.1q0 0 .1 0 0 0 0 .2v.1h.4q.2 0 0 0l.2-.1c.3-.2 0 0 0 0v.2q0 0 .1 0l.2.1q0 0 .2 0 .3.2.2.3h-.3l-.5-.1h-.5.3q0 0 0 .1h.3q0 0 0 .2h.1q.2 0 0 0l.4.1q.2 0 0 0l-.8-.1c-.7-.2 0 0 0 0h-.6l-.7-.2c-.3-.2 0 0 0 0q.2 0 0 .1l.3.2q0 0 .1 0t.1.1q0 0 .1 0 0 .1.2 0 .2 0 0 .2 0 0 .1 0h.1v.1q0 .1.3-.1 0-.1 0 .2 0 0 .2 0 0 .2.3 0l-.1.1h.3l.3.1c.4 0-.2.1-.3.1h-.3l-.2-.1q-.2 0-.2 0l-.4-.2q-.3.1-1-.5c-.7-.3 0 .2 0 .3v.2q.1.1.2 0 0 0 0 .2l.3-.1.1.3q0 .1.2 0v.4l.3-.1q.2-.1 0 .1h.3q.2 0-.1.3 0 .2.4-.2c.3-.2 0 0 0 .2q0 0 .4 0c.3-.2 0 0 0 0q-.2.2.5 0c.4-.1 0 0-.2 0q0 .2.4.1l-.6.1h-2.6q.4.1-.3.2c-.6.1 0 0 .1 0q.4 0 .3.2l.5-.1c.4 0-.5.3-.6.4h1c.5 0-.3.1-.5.2l-.5.1q-.2.1.4.2.1 0 0 0-.2.1.4.2c.4.1 0 0-.3.2l-.4.2q-.3 0 .2 0 .2.1-.2.2-.1.1.2.1.2 0 0 .1l-.6.3c-.4.1 0 0 .2 0l-.4.3h.5l-.1.3h.4-.9q-.2 0 .4.3h-.2l.6.2h-.3q-.2.3-.7.2t-.1 0q0-.2 0-.2-.3 0 0-.2-.1 0-.2 0l.3-.1-.2-.1.3-.2c.3-.1 0 0 0 0v-.2h-.1l-.9.1h.2q0 0 0-.1c-.3-.1 0 0 0 0h.5q.5 0-.1-.2h.5l-.3-.2.3-.2h-.7q-.2 0 .3-.2.1-.1-.5 0-.4 0 0-.2l.3-.1c.2-.1-.4 0-.3-.1l-.1-.1.1-.2q0 0 0-.1.2 0 .1-.3.1-.2-.6.4c-.5.2 0 0 .1-.2q0-.2 0 0v-.3l.3-.3-.5.1c-.4 0 0 0 .2-.2l-.8.2c-.5 0 .1-.1.3-.2l.1-.2q0-.1 0-.1-.2 0 .1-.2 0-.1 0-.1h-.3.1-.2l.2-.2.1-.1q0 0-.4 0h.1q0-.1-.3 0-.3 0-.4-.2-.2 0 .3-.1.2-.1-.1-.1l.3-.2c.3-.1 0 0 0 0l.2-.2q.1 0 .2-.3h-.4c-.3 0 0 0 0 0h-1.1.6-.1l.3-.1v-.1l.2-.1q.1 0-.5-.1c-.3-.1.2 0 .2-.2h-.2l.3-.3-.2.2-.6.2c-.4 0 0 0 .3-.2.3-.1-.1 0-.1 0l.1-.2v-.2l-.3.2q-.3-.2-.1-.3v-.1q0 0 .2-.3h.3l-.2-.2q0 0 .2-.2h-.2l.1-.2-.3.1-.3.2q-.1 0 0-.2-.1-.2.1-.3l.1-.1v-.2h-.3.2q0 0 0-.2.1-.2-.2-.2c-.4 0-.2 0-.2-.1q0-.2-.2 0v.2l-.2.1q0 .1 0 .2h-.1v.2l-.1.1q-.2 0 .2.2c.2 0-.1.2-.1.3v.3l.1.2h-.1l-.2-.3-.2-.2q0-.1 0-.2v-.3h-.1v-.1l-.1.1v.3q0 0-.1 0h-.2l.2.2v.2h.2q.2 0-.2.2l-.3.1h.2q.2 0-.2.2h.2l-.3.2h.1q0 .1 0 .2l.2.1.2.2q.1 0 0 0 0 .2-.4 0l-.6-.1h-.4q-.2.1.1.1l-.2.2c-.3.1 0 0 0 0h.3c.2 0-.1.1 0 .1h.3q.1 0 0 .1h.5-.2q0 0-.4 0l-.4.1q-.4 0 0 .1l-.2.2q-.2.2 0 0v.3l.4-.2.3.1c.3 0 0 0 0 .1h.2q.1.1 0 .2h.5l-.3.2q-.3 0-.5-.2-.2-.1-.1.1 0 0-.2 0v.2l-.3.1h.1l-.4.2h.8l-.3.1q-.2 0 0 0l-.5.1q-.2 0 0 .1 0 .2.2 0 .2 0 0 .2 0 0 .2 0 .2-.1 0 .1h.2q.1 0 0 .1-.1.2.1 0l.2.2h.2l-.6.3h.1l-.7.2c-.3 0 0 0 0 0q.2 0-.3.2H48c-.3 0 0-.1 0-.2q0 0 0-.1.2 0-.1-.1-.2 0 0-.1h-.3q-.2 0 0-.1l-.3-.1c-.2 0 .1-.2.1-.2v-.1l.1-.1h-.3v-.1q.2 0-.1-.2h.2q.2 0-.2-.2c-.3 0 0 0 0 0l-.4-.2q-.2 0 0-.1 0 0 0-.1 0 0-.1 0l-.2.2h-.3l.1.1-.1.2q.2 0 0 0 0 .2 0 0v.3q.1 0 0 .1h-.4l.2.1h-.1q0 .3 0 .2t0 .1h.1l-.3.1q0 .1 0 .1l-.3.1.1.1h.1l-.2.2h.1l-.2.1v.1h-.1q-.2 0 .2.3.2.1 0 0-.2 0 0 .2.1 0 0 0l.3.2.3.3-.4-.2c-.3-.2 0 0 0 0q0 0-.2 0t-.3-.2q0 .1 0 .1h-.3l.3.3.5.2H45l-.4-.2h-.3l.4.2h-.2l.4.4q.1.1-.2.1-.2 0 .2.1.3 0 0 .2h.2q.1 0 0 .2-.4 0-.2 0l-.5-.1c-.3-.1 0 0 0-.2h-.3q.2 0 .2-.2H44q-.1-.1.3-.2.1-.2 0 0l-.3-.2-.2-.1q-.3 0 .2 0 .1 0 0-.2.1 0-.4 0c-.4-.1 0-.1.2-.2q.2 0 0 0l-.3-.2c-.1-.2 0 0 .2-.2h-.1q-.2 0 0-.1-.2 0 0-.2l-.1-.2-.2.4q0 .2 0 0l-.2.2v-.2l-.1-.1v.3l.1.3h-.5l.3.1-.4.2q-.2.2.2 0l-.1.1-.2.2q0 .1 0 .2h-.2l.2.4q0 0-.1 0l.1.3h-.2q0 .1 0 .2h-.1v.5q-.2 0 0 .2.1.2-.1.1h-.2l.2.4q-.1 0-.2 0v.1q-.2 0 0 .1v.1h.1q-.1 0-.2 0l.2.3h-.2.1l-.2.2q.2 0 0 0h-.2v.1h-.1.1v.1q-.5 0-.3.1.3 0 .2.1-.2 0-.1.1c.1 0 .4.1 0 .2l-.3.1-.5-.2h.1l-.9-.2s.4 0 .2-.1l-.8-.3h.3q0-.1.2-.1t.2-.1q-.3-.2-.1-.2.3 0 .4 0-.3-.2-.2-.2.2.2.2 0h.2v-.2s.3 0 0 0h-.5s.3-.1 0-.2h-.3.7s.7 0 .2-.1l-.5-.1s.3 0 0-.1l-.3-.1v-.2h-.2v-.2q-.4.3-.7.2h-.3l.3-.1.2-.1q-.2 0 0-.1.4 0 .3-.1c-.1 0-.5 0-.1-.1l.3-.1.5.2q0-.3 0-.4s.3.2 0 0q-.3-.2-.1-.2.3 0 0-.1h-1.3l.7-.1q-.4 0-.1-.1h.4s-.4-.3 0-.2h.3s.3.1 0 0l-.3-.2h.2q-.2-.2-.6-.2l-.6.3h-.6l.1-.1q.3 0 .2-.2h.2q0-.1 0-.2 0 0 0-.1.3 0 .2-.2-.5 0-.4-.1h.1q-.3-.2-.2-.2h.3l-.3-.2q-.6-.1-.3-.2h.3l-.1-.2q-.2 0 0 0 .2-.2.1-.3t-.1 0l-.1-.1v-.2l-.1-.2-.1.2q0-.1 0 0v.2l-.1.1q.2.1 0 .2l-.2.2v.2q0 .2-.2.3H37l.2-.2-.1-.3c0-.2-.3-.4 0-.5q.3-.1.2-.2-.3 0-.2-.1v-.2h-.2q.2-.1 0-.3v-.1q-.2 0-.3-.3-.1-.1-.1 0c0 .2.2.2-.2.2q-.5 0-.2.2l-.1.2h.2q0 .2-.3.1h-.1l.1.2.1.1.3.3v.3l-.5-.1q-.4-.3-.4-.1.2 0 .1.1-.1 0-.1.1s.4 0 .2.2l-.2.2h.4l.2.4s.2.5 0 .4l-.6-.1.1.1.2.2s-.5 0 0 0c.3.2.7.4.2.3l-.6-.2-.3-.2.4.3H35c0 .2.6 0 .2.2q-.7.1-.5.2l.3.1.3.1q-.2 0-.1.1h.7-.2q-.3.2-.6.1h-.5s.3 0 0 0H34c.3.1 0 .3.3.4h.1q-.2 0 0 .2l.5.2H35q.6.1.4.2-.2.2-.5.2h-.4q.4.3.2.2l-.5-.1.1.2.3.2h-.3.2-.4q-.1 0 0 0l.2.3q-.1 0-.1.1l.2.2c.1.2 1 .3.3.3s-1-.3-1-.1c.2 0 .8.2.4.2q-.7-.2-.6-.1l.3.3.1.3q-.1-.1 0 0c0 .3.7.5 0 .3q-1-.6-.7-.5l.1.4q.2 0 .1 0-.2 0 0 .1l.1.2q0 0 0 .1s-.7 0-.5.2l.4.1q.5.3 0 .2-.8-.2-.5 0 .5.2.3.2l-.4.2q-.6 0-.4 0l.4.1-.4.3h.5s.4-.1 0 0q-.6.3 0 .2h.6s.3-.2 0 0q-.1 0 0 0c.2.1.7 0 .2.1h-1.3l.2.1s-.4 0 0 .1q.5.1.3.2-.3 0-.2.1h.4c0 .1-.4 0-.2.1q.3.2 0 .3t0 .1c.1.1.3.2-.2.2-.5-.1-.5 0-.8-.2q-.6 0-.4-.1.7-.1.7-.2h-.2q.7-.2.4-.3h-1.1q.5 0 .5-.1-.2-.2 0-.2s.7-.1.4-.2l-.4-.2c.2 0 .7 0 .3-.1l-.7-.3q-.4 0-.2-.1.5 0 .3-.1-.4-.2-.3-.2c.2 0 .6 0 .3-.1l-.6-.2c-.3-.2-.7-.1-.3-.2l.6-.2s-.3 0 0 0l.4-.3-.6-.2c-.3 0-1.2 0-.6-.1q1.2 0 1-.1s-1-.5-.6-.5l.5.1.4-.1h.2q-.9-.2-.4-.3H29l-.7.1h-.8q.5 0 .5-.1l-.2-.1q.8.1.6 0c0-.1-.4-.2 0-.1q.4.2.4 0c0-.1-.3-.4 0-.3q.6.4.6.3-.3-.4-.2-.4.3.2.4 0s-.3-.2 0-.1q.4.2.4 0-.2-.1 0-.4 0 .2.1 0v-.3q.2 0 .4 0v-.2q.2.2.3 0v-.3s.8-.7 0-.2l-1.2.6-.5.2q0 0-.2 0l-.3.1-.3.1H28q.4-.1.3-.2c0-.1.5 0 .4 0q-.4-.4-.1-.2t.3.1c0-.1-.3-.2 0-.1h.3c0-.1-.3-.4 0-.2q.2.1.2 0v-.1h.2q0 .2 0 0-.1-.2 0-.1h.3q-.1-.2 0-.1 0 0 .1 0 0-.2.1-.1.3 0 .2 0 .3-.1.3-.3-.2 0 0 0s.4-.3 0-.2c-.5.2-.2.2-.8.3l-.6.1s.7-.3-.1 0l-1 .2q-.1 0 0 0l.5-.2s-.3 0 0 0h.2q-.1-.1 0-.2h.3q-.1 0 0-.1s.5 0 .3-.1h-.6l-.6.2H28q0-.2.2-.3h.2q.1 0 .2 0v-.2q.1 0 .1 0v-.2s-.3-.3 0 0q.4.1.3 0-.1 0 0 0 .3 0 .2 0-.2 0 0 0h.4-.1q-.2-.2 0-.1-.2 0 0-.1h.1c0-.1-.4-.2 0-.2h.3-.1c-.3-.2-.1-.2-.4-.3h-.6s.3-.1 0 0h-.4q-.4 0-.3-.3-.1-.3 0-.3.3.1.2 0-.1 0 0 0 .4 0 .4 0-.1 0 0 0h.2q-.1-.1 0-.1h.1s-.3 0 0 0q.4 0 .3-.2h-.5q.1-.2 0-.2h-.1q-.4.2-.4 0H28h.3v-.1q-.2 0 0 0v-.1q.3.2.2 0-.1 0 0 0-.2-.2 0-.1h.3l-.1-.2.1-.1v-.1q.1 0 .3-.2.1-.1 0 0l-.4.1-.3.2v-.1l-.3.2-.3-.1v-.3h.2v-.1l.1-.2-.2-.1v-.3h-.5q-.2 0-.1 0h.1v.1q.1 0 0 0-.2 0 0 .1.1 0 .2 0v.2l-.2.1h-.2l.1.1v.1h.1q-.1.3 0 .2v.3q.1 0-.1.1l-.5-.1-.5-.4.1.3q.3 0 .1.1h-.1q.1.2.2.2h.3v.1q.1.2-.4.2h-.4l.2.1q-.2 0 0 .1h.2v.1h.1v.1h.2v.1h.3q0 .1 0 .2h.2v.7h-.6s.3 0 0 0q-.4-.2-.5 0H26q0 0 0 .1h.2c0 .1.5.4.3.4h-.1.3v.2h-1l-.7-.2q0 .1 0 .2h.3q0 .2 0 .2-.2 0 0 0 .5 0 .4.1-.2 0 0 .1h.1q.8 0 .7.1-.4 0-.3.1h.3-.8q-.6-.2-.5 0h.2-.2q.3.2.3.2s-.4 0 0 0l.3.2s-.4 0 0 0h.3s-.3 0 0 0h.4l.7.2h-1.4l-.8-.2-.3-.1q-.6-.3-.4-.1c0 .2.5.2.3.3s.2.1.2.1-.4.2-.3.3h.4q0 .1 0 .2l.3-.2v.3l.2-.1.1.2.4-.1q0 .1 0 .2l.3-.2h.3q0 .2 0 0h.4s0 .4-.4.4H25s.4-.1.1 0q-.4.2-.3.2.3-.1.2 0h.3q0 0 0 .1.1 0 .2 0v.2q0 0 .2 0v-.1q0 .3.2.1.1-.3.2-.2 0 .4.2 0s0-.3 0 0q0 .3.2.1v-.2l.1.4h-.1l-.7.1s.5.1 0 .1H25l.2-.1-.3-.1-.3-.2-.3-.3c.3 0 .4.3.3 0q-.2 0-.1-.1s.3.1 0 0l-.5-.4-.2-.1q0 .4-.3.3l-.2.2q.2 0 .2 0h-.2.4q-.4.3-.5.2h.1c0 .1-.3.1 0 .2h.4q-.2.1-.2.2.1 0 0 .1l-.6.2h.2q-.6.2-.5.3.2 0 .1 0-.3.1-.1.1h.2c-.1.1.2 0 .1.1h.1v.1h.3q.2 0 0 0-.2.3 0 .2s.4-.1.1 0l-.6.3-.6.5q-.4 0-.2.1c.3.1.8 0 .3.1l-.9.3h-.3q.4 0 .1.1-.3 0-.2.1s0 .5-.2.6h.3c.2 0 .7-.5.7-.3q0 .4 0 .2.2-.6.3-.4-.2.4 0 .2.3-.4.2-.3v.3q.3-.3.3-.2 0 .3.1 0l.1-.2q0 .3 0 .2c.2 0 1.3-.5.1.1q-1 .4-1.6.5H21l-.6.3q0 0 0 .2l-.4.3h.2v.3q.1-.2.2 0s-.3.5 0 0q.3-.5.3-.3t0 .2v.1q.3.1-.1.2c-.3 0 0 .2 0 .2h-.2l.4.1q0 0 .2 0t.2 0q.2.1.4 0 .1.1.2 0s.6-.1.2 0l-.6.3c-.3 0 1-.4-.2 0q-1.7.6-1.1.5c.4 0 0 .1.2.2q.2-.1.1 0l.3.1q.4 0 .3.1c-.1 0 .6-.1.4 0-.2.2.7 0 .3.2s-.3.3-1 .3-1.3-.3-.9-.1q.6.3 0 .2l-.3-.2h.2q-.3-.2-.2-.2.2 0 0-.1h-.2v-.1h-.2l-.2-.5-.2.1q.1.3 0 .3v-.1q.1 0 0 .2l-.6.2q-.2 0 0 0c0 .1.4 0 0 .2q-.3-.2-.3-.2s0-.7-.2-.4c-.1.2-.3-.6-.3-.4s-.4-.7-.3-.1c0 .5.3.8 0 .5-.3-.2-.5-.8-.4-.3s.4.6 0 .5c-.2 0-.5-.5-.3-.1.1.4.9.3.1.4s-.6 0-.4.1.9-.1.1.1-.2.3-.2.3l-.4.3v-.2s.4 0 0-.1h-.7s.4 0 0-.1h-.3v-.2h1.1l-.7-.2s.5 0 .1-.1q-.5-.1-.5-.2.2-.1 0-.2-.1 0-.2 0v-.3l-.3-.3h.2v-.1h.1c.2-.1.6.3.6.1q0-.3 0-.4c.1 0 .4.2.1 0q-.5-.3-.2-.3.5 0 0-.1c-.5 0-.5-.2-.8-.1h-.9.8c0-.2-.4-.2 0-.2h.5s-.5-.3 0-.2h.5s.3.1-.1 0q-.6-.4-.4-.3.4 0 .2-.1-.1-.3-.7-.1h-.3l-.3-.1-.2-.2q.5.2.3 0l-.4-.2q.5 0 .2-.2h-.3l-.3-.2h.3q-.4-.3-.3-.3h.4l-.5-.2-.1-.1v-.1h.1l-.1-.3q-.2 0 0-.1t.2-.3h-.2q0 .1 0 0l-.1-.2v-.2l-.2-.3-.1.2q0-.2 0 0 0 0 0 .1v.4h-.5v1l-.1.2q-.2 0-.2-.1l.1-.2-.1-.4h.1c0-.3-.5-.5-.1-.6q.5-.2.3-.3t-.3-.2q0 0 0-.2l-.2-.1c0-.1.3 0 0-.3l-.1-.2q0 0-.3-.3t-.2 0c0 .3.3.2-.3.3q-.6 0-.2.2-.1.3-.1.2t.3.2h-.6l.2.2h-.1c0 .2 0 0 .2.2q.3.2.4.4l-.1.4-.6-.2q-.6-.2-.5-.2l.2.2q-.3 0-.2.2s.5 0 .3.2q-.4.2-.3.3h.5l.3.5q0 0 0 .1s.3.6-.1.5l-.7-.2.1.2q.3.2.3.2c0 .1-.7 0-.1.1.5.2 1 .4.4.3l-.9-.3c-.3-.2-.8-.6-.4-.2l.5.4h-.3c0 .2.8.1.3.3q-1 .1-.8.2.3.3.5.2-.1 0 0 0l.4.1s-.4 0-.1.1h.4l.1.1h.4-.2l-.9.1-.6-.1s.4.1-.1.1h-.6c.4.1 0 .4.4.5H8s-.4 0 0 .2l.6.3c-.1 0-.5 0-.1.1q.6 0 .5.2l-.6.2h-.6c.2.2.6.2.2.2q-.7-.1-.6 0l.2.2.3.3-.4-.1.2.1h-.5q0 0 0 .1.5.2.3.3t-.1.1q0 .2.2.3c.3.2 1.3.3.4.3q-1.4-.2-1.2-.1c.3.2 1 .3.4.3q-1-.3-.8-.2l.5.4q0 0 0 .1l.1.3q-.1-.2-.1.1c.1.3 1 .7.1.3s-1-.9-1-.6q0 .3.2.5l.2.1h-.2l.3.4h-.1c0 .2-.9.1-.6.3l.6.2q.6.3 0 .2-1-.1-.8 0 .7.3.4.3-.2.2-.5.2H5l.5.2-.4.3.5.1c.2 0 .7-.2.2 0q-.9.3-.1.2h.8s.3-.2 0 0q-.3.1 0 .2h.2-1.3q-.5-.2-.4 0l.3.1s-.6 0-.1.1q.7.2.5.3c-.2 0-.6 0-.3.1H6c0 .2-.5 0-.2.2q.4.3 0 .4-.4 0-.1.1c.2.2.5.3-.2.2q-.7 0-1-.2c-.5 0-1 0-.5-.1.4-.2 1-.2.9-.3h-.3l.6-.4H3.6q.7 0 .7-.1l-.2-.3c.2-.1 1-.1.7-.3l-.5-.2c.2 0 .8 0 .3-.2l-1-.4h-.1c.3-.2.6 0 .3-.3-.3-.1-.7-.1-.3-.2.3 0 .8 0 .3-.1-.4-.2-.3 0-.7-.3s-1-.1-.4-.3q.9-.2.7-.2c0-.1-.3 0 0-.1s.8-.3.5-.4l-.7-.1c-.4-.1-1.6-.2-.8-.2q1.4 0 1.4-.1c-.1-.1-1.5-.7-1-.6q1 .2.8 0l.5-.1c.3 0 1.1 0 .3-.1-1-.1-.8-.2-.5-.2.3-.1-.3-.1-1-.1H.7l-1 .2c-.4 0-1.2 0-1-.1.2 0 .8 0 .6-.1-.2-.2-1-.3-.2-.2q1.2.4.8.1c0-.2-.5-.3 0-.2.3 0 .5.3.5 0 0-.1-.4-.5 0-.3q.8.6.7.4c0-.3-.4-.7-.2-.6s.6.3.6.1c0 0-.5-.4 0-.2.3 0 .5.3.4.1v-.6s.2.3.2 0l.1-.5q.3.2.4.1v-.3c.1 0 .5.3.4.1q0-.3 0-.4c0-.2 1-1 0-.4l-1.6.9-.6.2H.5l-.3.2-.4.1c-.2 0-1 0-.5-.1.6 0 .4-.2.4-.3s.7.2.6 0c-.2-.1-.6-.4-.2-.2q.6.4.5.2c0-.2-.5-.3 0-.2q.5.1.3 0c0-.1-.3-.4 0-.3q.3.3.3.2v-.3h.2c.1 0 0 .3.1 0 0-.1-.3-.2 0-.1h.3q-.2-.2 0-.2c.2 0 .1.3.2 0 .2 0-.1-.1.2 0q.3 0 .2 0 0-.1 0-.2.5-.1.3-.2-.2 0 0-.1s.6-.4 0-.2-.2.2-1 .4l-.8.1s.9-.4-.1 0l-1.2.3s-.4 0 0 0l.5-.2s-.3 0 0 0l.3-.1c0-.1-.3-.1 0-.2q.4 0 .4-.1-.2 0 0-.1s.7 0 .3-.1H.4l-.8.2h-.4s0-.4.2-.4q.4.1.4 0 .1 0 .2 0v-.2q.1.2.2 0l-.1-.2q.1 0 0 0c0-.2-.3-.4 0-.2q.6.4.4.2h.3c0-.1-.3-.2 0-.1l.5.1-.1-.1q-.3-.2-.1-.2t.1 0s-.3 0 0-.1h.2c-.1-.1-.6-.2-.2-.2h.5-.1c-.4-.3-.1-.3-.5-.3H.3c0-.1.3-.2 0-.2l-.6.2q-.4-.1-.3-.5c0-.2-.3-.4 0-.4q.3.2.3.1c0-.1-.3-.2 0-.1q.4 0 .4 0s-.3-.1 0-.1h.3s-.3-.1 0 0h.2s-.4-.1-.1-.1q.6 0 .4-.1l-.4-.1H.3q.1-.2 0-.2h-.8q.6 0 .4-.1l-.1-.1q-.2 0 0 0 0-.2.2-.1 0 .2 0 0t0-.1q.3.1.2 0c0-.1-.3-.1 0-.1q.5.2.4 0l-.2-.2q-.1 0 0 0v-.1h.2v-.2q.1 0 .4-.2s.2-.2-.2 0l-.5.1-.3.2s0-.3-.1 0l-.3.1h-.3q-.2-.3 0-.5.3.1.2 0 .1-.3.1-.4 0 0-.1 0h-.2q.2-.3 0-.4t-.3 0q.2 0 0 0l-.3-.1q-.2 0-.2 0h.2q0 .2 0 .2.1 0 0 0t0 .1q.1 0 .2 0v.3l-.3.1h-.1q.1.2.1.2v.1q.2 0 0 0 0 .2 0 .2l.2.1v.4h-.3c-.3 0-.2.1-.6-.1q-.7-.6-.7-.5l.2.4q.3 0 .1.1-.2 0-.2.1.3.2.4.1v.2h.3q.1.3-.5.2-.9 0-.6.1l.3.1q-.2.2 0 .2h.4-.1l.2.1q-.2.1 0 .2h.2v.1h.4q-.1 0 0 .2h.2v.9H-2q-.4 0-.4 0c.1 0 .5.1.2 0q-.7-.2-.8 0h-.3q-.3.1 0 .2h.1s.7.4.5.5h-.2q.4 0 .4 0l.1.2h-1.5q-1.1-.2-.8-.2l.1.2q0 .3.2.2c0 .1-.3.1 0 .2h.6q-.2.1 0 .2h.2c.4.1 1 0 .8.1q-.5.1-.3.2h.3-1q-.7-.3-.6-.1.5.1.2.1-.6-.2-.3 0 .5.2.5.2h-.2l.5.2s-.5 0 0 0h.5q-.5.1-.2.2h.7l1 .1q-.1.1-.7.1l-1.1-.1-1.2-.3H-5q-.8-.5-.6-.2c.2.2.7.3.4.4-.3 0 .3.2.3.2s-.5.2-.4.3h.5v.2l-.6.5c-.4.3-.3.2-.6.2h-.3v-.4q0-.2.2-.1l-.1-.2h.1v-.2q0 0 0-.1-.3 0-.4-.2v-.2q0-.1.3 0h-.2q0-.1.2-.2h-.1c-.1-.2 0 0 .1-.2l-.4.2q-.2 0 0-.1 0 0-.2 0v2.1q.2 0 0 0v.7c.3 0 0 .2 0 .4v1.8c.3 0 .4.4.4.4h-.4v.5c.4.1 0 .1 0 .1v1h.4c.5 0-.2.2-.4.2v1q.2 0 0 .2v.2l.6-.2c.8-.2 0 0-.2.2h.6l-1 .2v30h1.1v1.7l26.4-.3v22H145v-7.3h69v-18.1l26.9.3z" mask="url(#j)" style="display:inline;fill:#c5a7ef;fill-opacity:1;fill-rule:nonzero;stroke:none;stroke-width:.00968068" transform="translate(37.4 36.7)scale(.73958)"/><path d="m97.8 170.5-.4-1c-.4-.7-1.3-.7-1.7-1.4-.2-.5.1-1.6 0-2.2v-2.2l.3-1 1.4-4.4v-.2l.2.1v.3l.2 1.7 1 6.1q.2.7.1 1.3l-.5 2.5q.2.7-.6.4m-9.7-15q.5.8 1.4.8l.5-.4q.2-.4-.2-.6l.3-.4q.5-.4.8-1l.1-.4q.5-1.6 1.5-3l2-2.6.2-.3h.2l-.1 1-1.6 4.7q-.3.6 0 1.2v.8l-.3.7q-.4 1-.2 2.1 0 .4-.2 1-.2.8 0 1.7l.2.6q.4 1.5-.2 2.9-.2.8.4 1.3l1 1q.3.3.4.6c0 1.1 1.3 1.3 1.9 2.1s1.2.5 2 1c.2 0-.1 1.2 0 1.2.8 0 1.2.4 2 .1q.8-.2.6-1l-.2-.8q-.4-.9-.1-1.8l1-3.7q0-.9-.2-1.8c.5-2.1-.3-4.1.6-6q.3-.7.7-1.2t.2-1l-.3-2.8q0-2 1.2-3.6l.6.7q.3.4.7.6 1.9.6 3.9.7l2.9.1.3.1 1 .4.9.5q.6.3 1.2.2c-.2-.5-.9-.2-1-.8l.4.1.9.3q0 0 .4 0l-.3-.3-.7-.3-.3-.3h.4l1 .2.3-.1-.3-.3-1-.2q0 0-.3-.2h.2l1 .1h.3l-.2-.3-1.1-.2q-.6 0-1-.4l.3-.3.5-.5v-.2h-.3q-1 .7-2.3 1-.2.2-.4 0l-3.4-1q-.6-.2-1.1-.7l-2.5-2.3-2-1.6.5-.8.3-.8.2-.7q0-.4-.3-.9.3-.5.7-.4h.6l.2-.3v-.4l-.4-.1q-.8 0-1.4-.7-.7-.6-1.4-.9h-.8q-.4 0-.9.4l-.8.8q-.8 1.2-.2 2.4v.3l.3 1.1-1 .1a5 5 0 0 0-4.8 3l-1.1 2.2q-1.7 2.5-2.4 5.5a2 2 0 0 1-1.2 1.4q-.5.1-.7.7z" style="display:inline;fill:#3e1d77;fill-opacity:1;fill-rule:nonzero;stroke:none;stroke-width:.00173211"/><path d="m143.8 152.8-.4-.2-2.6-.4.6-2.3h-.1l3.1-.5h.3zm-2.9 1.1-.5.1.3-1.1h.2q2.4.3 2.7.5-.3.3-2.7.5m-3.6-2 .2-.4.2-.3h.3l.3-.3.1-.2.2-.1.3-.3.1-.3h1.7l-.5 2.1zm2.4 2.2-2.9.1.4-1.6 2.8.2zm-3-2.8v-.1h.1zm0 .7h-.4l.4-.2zm-.6 2.2H135v-1.6h1.6zm-1.4-19.5h-2.2v-.1l-.1-.2.1-.2v-.8h4.4v1.2l-2 .1zm-.3 12.5h-.2a3 3 0 0 0-1.2-1.2l-.3-2.6v-.4l-.1-.2v-1.5l-.1-.2.1-.2v-.4l-.1-.2v-4l-.1-.3.1-.2v-.4l-.1-.2h2zm0 4.4-.1-.2.1-.5zm0 2.6h-1.2l-.2-1 .5-.6h1zm-1.6-6.8-.1-.1-.1-.1h-.2v-.1h-.1l-.2-.1h-.1l-.3-.1h-.6l-.7.2-.5.3-.5.3-.3.3.2-.2v-.2h.1l.2-.2.2-.2h.2l1-.6h1.1l.2.1h.1l.1.1.2.1.3.3.1.1.6 1-.2-.2-.1-.1v-.1h-.1l-.1-.2-.1-.1-.2-.1zm-1.4 6.8q.5-.2 1-.6l.1.6zm-2.4-7.8-.2-.2v-.2a23 23 0 0 1-.9-4.4l-.1-.2v-.2l-.2-2.4v-.4l-.1-.2.1-.2v-.4l-.1-.2v-2.9l1.9.4.2.3-.1.2v2l.1.2-.1.2v1.7l.1.4.1.2v.2l.6 5.6q-.6.3-1.2.8zm-1.4-12.6 1.9-.2v.7zm2.4 1.2 2 .2v4l.1.2-.1.2v1.3l.2.2-.1.2v.5l.1.2-.1.2v.4q0 .1.2.2l-.2.2v.4l.2.2-.1.3v.4l.2.2-.1.2v1.1q-.7-.3-1.5 0v-.3l-.6-4.8v-.4l-.1-.2v-1.5l-.1-.2V135m0-1.4 2-.2v1.2l-2-.3v-.7m7 1.6-.1.2v3.4l-.1.4.1.2-.1.2v2.3l-.1.3v1.4l-.1.2v.9l-.1.4v.4l-.2 1.7h-1.4v-12zm0 9.3.1-.2.1-1.7v-.8l.1-.5-.1-.2.1-.2v-3.2l.1-.2v-1.2l-.1-.2.1-.3v-.4l-.1-.2 2-.2.1.2v1.8l-.1.4.1.2-.1.2v1.6l-.1.5v.4a59 59 0 0 1-1 7h-1.4v-.5l.3-1.7v-.4zm.4-11.1 2 .3v.8l-2 .2v-.1l-.1-.2.1-.2zm2.1 8.3.1-.2.2-1.6v-.4l-.1-.2.1-.2V136l.1-.2v-.4l-.1-.2.1-.2.1-.1 1.8-.5v1.1l.1.2v.8l-.1.2v2.3l-.1.2-.9 6.2-.2.2-.5 1.5v.3h-1.4v-.2a23 23 0 0 0 .9-4.9zm.4-7.6v-.5l1.9.2q-.3.3-2 .6zm-3.5 15.3.2-.5-.1-.2.1-.2.1-.6h1.3v.2l-.2.2-.1.4v.2l-.1.1-.2.4zm-.2-.8-.2.2v.6h-1V148h1.2zm-.7 2.4q-.2 0-.2.2l-.2.2-.1.2V150h.7v.2l-.1.1-.1.4zm.6 1h-.1v-.1zm.9-1.7-.2.1q0 .3-.3.4v.2h-.2l-.3.3-.2.1v-.2l.2-.2.1-.4v-.3l.2-.1.7-.1zm1.1.2h-.2l-.3.2.2-.6h.6l-.2.1zm1.5-2-.2.1-.2.4v.2l-.2.1h-1v-.3l.2-.2.2-.4v-.2l.1-.2h1.2v.3q-.1 0 0 .2m2-.3q2.7.3 3 .5-.3.2-3 .5l-2 .1h.1l.2-.4v-.3l.2-.1.2-.4zm-13.2 5.7-2.6-.5 1.8-.4 1 1zm-3.7-4.5h.2q.8.3 2.3.4-.3 1.5.1 2.6l-1.8.4zm3-1.2-.4 1-2.6-.5zm17.8.5q-.1-.6-1-.8a18 18 0 0 0-3.9-.5v-.3q.2 0 .2-.2l.1-.4v-.2l.2-.2v-.4q0 0 0-.2.2 0 .2-.2l.1-.4v-.2l.1-.2a26 26 0 0 0 .8-5.7V134l.3-1.5q-7.9-1.2-15.8 0l.2 1.5v.2h.1l-.1.2v2.9l.1.2v1.4l.1.2q0 .1 0 .2a51 51 0 0 0 1 7l.3.1v.3l.1.5-.3.4-3.4.4q-1 .3-1 .8v.2l1 4.5q.2.7 1 .8.7.3 2.1.4 2.7.3 6.4.3v11.2h.5v-11.2a55 55 0 0 0 8.5-.7q.9-.1 1-.8l1-4.5z" style="display:inline;fill:#3e1d77;fill-opacity:1;fill-rule:nonzero;stroke:none;stroke-width:.00125444"/><path d="M134.7 135.2h.6V165h-.6z" style="opacity:1;fill:#3e1d77;fill-opacity:1;stroke:none;stroke-width:2.44554;stroke-dasharray:none;stroke-opacity:1"/><path d="m94.5 167.3 6.6-.6 3.3.7 2.5.9h1.2l2.7.5 1.4.1c.6 0 3.5-.3 4.6-.2s2.7-.6 5.2-.3c2.6.3 1.6-1 3-.8s1.8 0 2-1.1c.4-1.2 2.4-.5 3-.5.7.1 8-.2 8.6-.2 2.4-.2 5.2-1.6 5.2-1.6l-4.8 5.6-3.9 2.8-3.8 2.1-5.9 2.6-8.8 1.5-8.5-1.8-3.6-1.3-3.4-2-2.7-2.8z" style="display:inline;opacity:1;fill:#3e1d77;fill-opacity:1;stroke:none;stroke-width:1.95679;stroke-dasharray:none;stroke-opacity:1"/><path d="m132 165.8-.8-1.2 2 1.1-1.7-2.4 2.3 2.2-1.1-2.2 1.5 1.6 1-2.4v2l1.1-1.8-.2 2v1.2l-2.7 1.5z" style="display:inline;opacity:1;fill:#3e1d77;fill-opacity:1;stroke:none;stroke-width:1.95679;stroke-dasharray:none;stroke-opacity:1"/><path d="m138 165.8 1-1.2-2.2 1.1 1.8-2.4-2.3 2.2 1.1-2.2-1.5 1.6c-.7-.4.8 2.5.8 2.5z" style="opacity:1;fill:#3e1d77;fill-opacity:1;stroke:none;stroke-width:1.95679;stroke-dasharray:none;stroke-opacity:1"/><circle cx="118.1" cy="149" r="29.7" style="display:inline;fill:none;fill-opacity:1;stroke:#3e1d77;stroke-width:1.95679;stroke-dasharray:none;stroke-opacity:1"/><text xml:space="preserve" x="156.5" y="156.3" style="font-size:1.92861px;text-align:start;writing-mode:lr-tb;direction:ltr;text-anchor:start;display:inline;opacity:1;fill:none;fill-opacity:1;stroke:none;stroke-width:1.60717;stroke-dasharray:none;stroke-opacity:1"><tspan x="156.5" y="156.3" style="font-style:normal;font-variant:normal;font-weight:400;font-stretch:normal;font-size:30.8577px;font-family:&quot;BBH Bogle&quot;;-inkscape-font-specification:&quot;BBH Bogle, Normal&quot;;font-variant-ligatures:normal;font-variant-caps:normal;font-variant-numeric:normal;font-variant-east-asian:normal;fill:#3e1d77;fill-opacity:1;stroke-width:1.60717">Discr</tspan></text><text xml:space="preserve" x="157.8" y="163.6" style="font-style:normal;font-variant:normal;font-weight:400;font-stretch:normal;font-size:50.8px;font-family:&quot;BBH Bogle&quot;;-inkscape-font-specification:&quot;BBH Bogle, Normal&quot;;font-variant-ligatures:normal;font-variant-caps:normal;font-variant-numeric:normal;font-variant-east-asian:normal;text-align:start;letter-spacing:1.32292px;writing-mode:lr-tb;direction:ltr;text-anchor:start;display:inline;fill:#000;fill-opacity:1;stroke-width:2.64583"><tspan x="157.8" y="163.6" style="font-style:normal;font-variant:normal;font-weight:400;font-stretch:normal;font-size:6.35px;font-family:Sans;-inkscape-font-specification:&quot;Sans, Normal&quot;;font-variant-ligatures:normal;font-variant-caps:normal;font-variant-numeric:normal;font-variant-east-asian:normal;letter-spacing:1.32292px;fill:#000;fill-opacity:1;stroke-width:2.64583">Get yours back</tspan></text></g></svg>
